<?xml version="1.0" encoding="UTF-8"?>
<svg xmlns="http://www.w3.org/2000/svg" xmlns:xlink="http://www.w3.org/1999/xlink" width="38pt" height="38pt" viewBox="0 0 38 38" version="1.1">
<g id="surface1">
<path style=" stroke:none;fill-rule:nonzero;fill:rgb(19.215686%,37.647059%,60%);fill-opacity:1;" d="M 29.078125 4.128906 C 28.417969 6.113281 25.113281 6.609375 14.871094 6.609375 C 7.601562 6.609375 1.652344 7.269531 1.652344 8.261719 C 1.652344 10.738281 5.453125 18.667969 7.929688 21.808594 C 9.746094 23.957031 12.886719 24.78125 18.503906 24.78125 C 22.800781 24.78125 26.433594 25.445312 26.433594 26.433594 C 26.433594 27.425781 21.808594 28.085938 15.859375 28.085938 C 7.601562 28.085938 5.121094 28.746094 4.296875 30.894531 C 3.636719 32.382812 3.964844 34.363281 4.792969 35.191406 C 7.105469 37.503906 12.0625 35.191406 10.90625 32.21875 C 10.242188 30.398438 11.398438 29.738281 15.53125 29.738281 C 19.660156 29.738281 21.3125 30.566406 21.972656 33.042969 C 22.800781 36.183594 27.921875 37.835938 28.253906 35.027344 C 28.253906 34.363281 28.582031 32.050781 28.914062 29.738281 C 29.078125 27.425781 28.746094 24.78125 28.085938 23.957031 C 25.773438 21.148438 30.070312 6.277344 33.375 5.285156 C 37.339844 4.296875 37.175781 1.652344 33.207031 1.652344 C 31.554688 1.652344 29.738281 2.808594 29.078125 4.128906 Z M 29.078125 4.128906 "/>
</g>
</svg>
