<?xml version="1.0" encoding="UTF-8"?>
<svg xmlns="http://www.w3.org/2000/svg" xmlns:xlink="http://www.w3.org/1999/xlink" width="38pt" height="38pt" viewBox="0 0 38 38" version="1.1">
<g id="surface1">
<path style=" stroke:none;fill-rule:nonzero;fill:rgb(19.215686%,37.647059%,60%);fill-opacity:1;" d="M 0.0351562 0.0351562 C -0.0195312 0.0898438 -0.0195312 37.910156 0.0351562 37.964844 C 0.0898438 38.019531 37.910156 38.019531 37.964844 37.964844 C 38.019531 37.910156 38.019531 0.0898438 37.964844 0.0351562 C 37.910156 -0.0195312 0.0898438 -0.0195312 0.0351562 0.0351562 Z M 37.863281 0.136719 C 37.90625 0.179688 37.910156 1.933594 37.910156 19 C 37.910156 36.066406 37.90625 37.820312 37.863281 37.863281 C 37.820312 37.90625 36.066406 37.910156 19 37.910156 C 1.933594 37.910156 0.179688 37.90625 0.136719 37.863281 C 0.09375 37.820312 0.0898438 36.066406 0.0898438 19 C 0.0898438 1.933594 0.09375 0.179688 0.136719 0.136719 C 0.179688 0.09375 1.933594 0.0898438 19 0.0898438 C 36.066406 0.0898438 37.820312 0.09375 37.863281 0.136719 Z M 37.863281 0.136719 "/>
<path style=" stroke:none;fill-rule:nonzero;fill:rgb(19.215686%,37.647059%,60%);fill-opacity:1;" d="M 0.996094 1.015625 C 0.984375 1.035156 0.984375 9.144531 0.984375 19.03125 L 0.996094 37.003906 L 37.003906 37.003906 L 37.003906 0.996094 L 19.007812 0.984375 C 4.621094 0.980469 1.003906 0.984375 0.996094 1.015625 Z M 28.851562 10.40625 C 28.851562 14.011719 28.851562 16.996094 28.839844 17.035156 L 28.828125 17.101562 L 27.171875 17.09375 L 25.523438 17.085938 L 24.652344 14.785156 C 24.175781 13.519531 23.769531 12.453125 23.753906 12.414062 C 23.722656 12.351562 23.707031 12.351562 23.371094 12.351562 C 22.96875 12.351562 22.664062 12.316406 22.175781 12.226562 C 21.5625 12.113281 20.917969 11.777344 20.480469 11.339844 C 20.222656 11.085938 20.128906 10.953125 19.882812 10.519531 C 19.773438 10.328125 19.683594 10.058594 19.683594 9.925781 C 19.683594 9.917969 18.214844 9.914062 16.425781 9.914062 L 13.167969 9.914062 L 11.519531 12.589844 C 10.613281 14.0625 9.855469 15.296875 9.835938 15.332031 C 9.800781 15.398438 9.828125 15.417969 10.738281 15.945312 C 11.253906 16.246094 11.695312 16.492188 11.71875 16.492188 C 11.742188 16.492188 12.339844 15.523438 13.054688 14.339844 L 14.355469 12.1875 L 16.371094 12.179688 C 17.480469 12.175781 18.398438 12.183594 18.414062 12.195312 C 18.425781 12.210938 18.101562 12.757812 17.695312 13.421875 C 17.289062 14.082031 16.226562 15.800781 15.335938 17.25 L 13.714844 19.875 L 13.714844 22.765625 C 13.714844 24.699219 13.707031 25.671875 13.6875 25.710938 C 13.65625 25.769531 13.585938 25.769531 10.347656 25.769531 L 7.035156 25.769531 L 7.035156 27.964844 L 16.148438 27.964844 L 16.15625 25.042969 C 16.160156 23.21875 16.175781 22.113281 16.195312 22.109375 C 16.210938 22.105469 17.6875 24.265625 19.476562 26.910156 C 21.269531 29.550781 22.753906 31.738281 22.78125 31.769531 C 22.828125 31.820312 22.902344 31.824219 24.214844 31.824219 C 24.980469 31.824219 25.621094 31.8125 25.636719 31.800781 C 25.660156 31.789062 25.339844 31.269531 24.71875 30.324219 C 21.453125 25.339844 18.628906 21.023438 18.582031 20.945312 L 18.523438 20.851562 L 20.347656 17.945312 C 21.347656 16.347656 22.183594 15.035156 22.207031 15.035156 C 22.230469 15.035156 22.582031 15.851562 23.0625 17.027344 L 23.886719 19.015625 L 26.332031 19.023438 C 27.894531 19.027344 28.789062 19.042969 28.8125 19.058594 C 28.839844 19.082031 28.851562 20.054688 28.867188 23.148438 C 28.878906 25.382812 28.894531 28.265625 28.902344 29.554688 L 28.925781 31.902344 L 27.753906 33.035156 L 26.589844 34.171875 L 25.242188 34.171875 C 24.183594 34.171875 23.898438 34.160156 23.898438 34.132812 C 23.898438 34.113281 24.292969 33.703125 24.773438 33.21875 C 25.359375 32.636719 25.636719 32.339844 25.613281 32.324219 C 25.589844 32.3125 24.945312 32.300781 24.171875 32.300781 L 22.765625 32.300781 L 22.628906 32.429688 C 22.550781 32.5 22.140625 32.921875 21.714844 33.367188 L 20.945312 34.171875 L 13.917969 34.171875 C 8.296875 34.171875 6.886719 34.160156 6.886719 34.132812 C 6.886719 34.113281 7.378906 33.601562 7.984375 32.996094 L 9.085938 31.898438 L 9.085938 28.589844 L 6.414062 28.589844 L 6.398438 28.519531 C 6.390625 28.484375 6.386719 27.726562 6.390625 26.835938 L 6.398438 25.21875 L 9.085938 25.203125 L 9.085938 14.539062 C 9.085938 8.667969 9.09375 3.859375 9.105469 3.851562 C 9.113281 3.839844 13.5625 3.832031 18.980469 3.835938 L 28.839844 3.84375 Z M 28.851562 10.40625 "/>
<path style=" stroke:none;fill-rule:nonzero;fill:rgb(19.215686%,37.647059%,60%);fill-opacity:1;" d="M 22.621094 6.101562 C 21.890625 6.199219 21.640625 6.324219 21.089844 6.863281 C 20.515625 7.429688 20.367188 7.734375 20.277344 8.523438 C 20.21875 9.03125 20.34375 9.710938 20.5625 10.09375 C 20.808594 10.527344 21.226562 10.949219 21.652344 11.199219 C 22.050781 11.433594 22.746094 11.558594 23.289062 11.492188 C 23.902344 11.421875 24.234375 11.289062 24.746094 10.910156 C 25.105469 10.644531 25.476562 10.0625 25.585938 9.605469 C 25.734375 8.988281 25.734375 8.550781 25.585938 7.972656 C 25.402344 7.226562 24.589844 6.394531 23.859375 6.203125 C 23.667969 6.152344 23.015625 6.050781 22.933594 6.058594 C 22.917969 6.0625 22.777344 6.078125 22.621094 6.101562 Z M 22.621094 6.101562 "/>
</g>
</svg>
