<?xml version="1.0" encoding="UTF-8"?>
<svg xmlns="http://www.w3.org/2000/svg" xmlns:xlink="http://www.w3.org/1999/xlink" width="38pt" height="38pt" viewBox="0 0 38 38" version="1.1">
<g id="surface1">
<path style=" stroke:none;fill-rule:nonzero;fill:rgb(19.215686%,37.647059%,60%);fill-opacity:1;" d="M 0.0351562 0.0351562 C -0.0195312 0.0898438 -0.0195312 37.910156 0.0351562 37.964844 C 0.0898438 38.019531 37.910156 38.019531 37.964844 37.964844 C 38.019531 37.910156 38.019531 0.0898438 37.964844 0.0351562 C 37.910156 -0.0195312 0.0898438 -0.0195312 0.0351562 0.0351562 Z M 37.863281 0.136719 C 37.90625 0.179688 37.910156 1.933594 37.910156 19 C 37.910156 36.066406 37.90625 37.820312 37.863281 37.863281 C 37.820312 37.90625 36.066406 37.910156 19 37.910156 C 1.933594 37.910156 0.179688 37.90625 0.136719 37.863281 C 0.09375 37.820312 0.0898438 36.066406 0.0898438 19 C 0.0898438 1.933594 0.09375 0.179688 0.136719 0.136719 C 0.179688 0.09375 1.933594 0.0898438 19 0.0898438 C 36.066406 0.0898438 37.820312 0.09375 37.863281 0.136719 Z M 37.863281 0.136719 "/>
<path style=" stroke:none;fill-rule:nonzero;fill:rgb(19.215686%,37.647059%,60%);fill-opacity:1;" d="M 0.996094 1.015625 C 0.984375 1.035156 0.984375 9.144531 0.984375 19.03125 L 0.996094 37.003906 L 37.003906 37.003906 L 37.003906 0.996094 L 19.007812 0.984375 C 4.621094 0.980469 1.003906 0.984375 0.996094 1.015625 Z M 28.910156 14.523438 L 28.914062 25.203125 L 30.261719 25.210938 L 31.601562 25.21875 L 31.609375 26.835938 C 31.613281 27.726562 31.609375 28.484375 31.601562 28.519531 L 31.585938 28.589844 L 28.914062 28.589844 L 28.914062 31.898438 L 30.015625 32.996094 C 30.621094 33.601562 31.113281 34.113281 31.113281 34.132812 C 31.113281 34.160156 29.703125 34.171875 24.082031 34.171875 L 17.054688 34.171875 L 16.285156 33.367188 C 15.859375 32.921875 15.449219 32.5 15.371094 32.429688 L 15.234375 32.300781 L 13.828125 32.300781 C 13.054688 32.300781 12.410156 32.3125 12.386719 32.324219 C 12.363281 32.339844 12.640625 32.636719 13.226562 33.21875 C 13.707031 33.703125 14.101562 34.113281 14.101562 34.132812 C 14.101562 34.160156 13.816406 34.171875 12.757812 34.171875 L 11.410156 34.171875 L 10.246094 33.035156 L 9.074219 31.902344 L 9.097656 29.554688 C 9.105469 28.265625 9.121094 25.382812 9.132812 23.148438 C 9.148438 20.054688 9.160156 19.082031 9.1875 19.058594 C 9.210938 19.042969 10.105469 19.027344 11.667969 19.023438 L 14.113281 19.015625 L 14.9375 17.027344 C 15.417969 15.851562 15.769531 15.035156 15.792969 15.035156 C 15.816406 15.035156 16.652344 16.347656 17.652344 17.945312 L 19.476562 20.851562 L 19.417969 20.945312 C 19.371094 21.023438 16.546875 25.339844 13.28125 30.324219 C 12.660156 31.269531 12.339844 31.789062 12.363281 31.800781 C 12.378906 31.8125 13.019531 31.824219 13.785156 31.824219 C 15.097656 31.824219 15.171875 31.820312 15.21875 31.769531 C 15.246094 31.738281 16.730469 29.554688 18.523438 26.910156 C 20.3125 24.269531 21.789062 22.109375 21.804688 22.109375 C 21.828125 22.113281 21.839844 23.121094 21.84375 25.042969 L 21.851562 27.964844 L 30.964844 27.964844 L 30.964844 25.769531 L 27.652344 25.769531 C 24.414062 25.769531 24.34375 25.769531 24.3125 25.710938 C 24.292969 25.671875 24.285156 24.699219 24.285156 22.765625 L 24.285156 19.875 L 22.664062 17.25 C 21.773438 15.800781 20.710938 14.082031 20.304688 13.421875 C 19.898438 12.757812 19.574219 12.210938 19.585938 12.195312 C 19.601562 12.183594 20.519531 12.175781 21.628906 12.179688 L 23.644531 12.1875 L 24.945312 14.339844 C 25.660156 15.523438 26.257812 16.492188 26.28125 16.492188 C 26.304688 16.492188 26.746094 16.246094 27.261719 15.945312 C 28.171875 15.417969 28.199219 15.398438 28.164062 15.332031 C 28.144531 15.296875 27.386719 14.0625 26.480469 12.589844 L 24.832031 9.914062 L 21.578125 9.914062 C 19.785156 9.914062 18.316406 9.917969 18.316406 9.925781 C 18.316406 10.058594 18.226562 10.328125 18.117188 10.519531 C 17.871094 10.953125 17.777344 11.085938 17.519531 11.339844 C 17.082031 11.777344 16.4375 12.113281 15.824219 12.226562 C 15.335938 12.316406 15.03125 12.351562 14.628906 12.351562 C 14.292969 12.351562 14.277344 12.351562 14.246094 12.414062 C 14.230469 12.453125 13.824219 13.519531 13.347656 14.785156 L 12.476562 17.085938 L 10.832031 17.09375 C 9.542969 17.101562 9.1875 17.09375 9.167969 17.0625 C 9.140625 17.015625 9.136719 3.878906 9.164062 3.851562 C 9.171875 3.839844 13.621094 3.832031 19.042969 3.835938 L 28.902344 3.84375 Z M 28.910156 14.523438 "/>
<path style=" stroke:none;fill-rule:nonzero;fill:rgb(19.215686%,37.647059%,60%);fill-opacity:1;" d="M 14.664062 6.101562 C 14.046875 6.183594 13.722656 6.316406 13.292969 6.679688 C 12.84375 7.054688 12.523438 7.519531 12.414062 7.972656 C 12.265625 8.550781 12.265625 8.988281 12.414062 9.605469 C 12.523438 10.0625 12.894531 10.644531 13.253906 10.910156 C 13.765625 11.289062 14.097656 11.421875 14.710938 11.492188 C 15.253906 11.558594 15.949219 11.433594 16.347656 11.199219 C 16.773438 10.949219 17.191406 10.527344 17.4375 10.09375 C 17.65625 9.710938 17.78125 9.03125 17.722656 8.523438 C 17.632812 7.734375 17.484375 7.429688 16.910156 6.863281 C 16.457031 6.414062 16.234375 6.277344 15.808594 6.179688 C 15.574219 6.125 15.058594 6.050781 14.976562 6.058594 C 14.960938 6.0625 14.820312 6.078125 14.664062 6.101562 Z M 14.664062 6.101562 "/>
</g>
</svg>
