<svg width="70" height="33" xmlns="http://www.w3.org/2000/svg">

 <g>
  <title>background</title>
  <rect fill="none" id="canvas_background" height="402" width="582" y="-1" x="-1"/>
 </g>
 <g>
  <title>Layer 1</title>
  <g id="surface1">
   <path id="svg_1" fill-rule="nonzero" fill="#316099" d="m61.91797,1.71094c-0.75,0.16797 -1.41016,0.21484 -1.51953,0.10156c-0.07422,-0.07422 -1.04297,-0.04297 -1.16797,0.03516c-0.04297,0.03125 -0.59375,0.05468 -1.21875,0.05859c-0.70313,0 -1.16406,0.03125 -1.20703,0.0625c-0.10547,0.08203 -1.06641,0.14844 -1.11719,0.07813c-0.04297,-0.07813 -0.50391,-0.07813 -0.54687,-0.00782c-0.01563,0.02735 -0.17579,0.05469 -0.35157,0.05469c-0.17187,0 -0.33593,0.02344 -0.36328,0.05078c-0.07422,0.06641 -1.05859,0.1211 -1.09765,0.05469c-0.04688,-0.07031 -0.26954,-0.05859 -0.34375,0.01953c-0.06641,0.0625 -0.76563,0.10938 -1.74219,0.12109c-0.17969,0.00391 -0.33985,0.01954 -0.35547,0.04297c-0.02344,0.02344 -0.26953,0.06641 -0.55078,0.09375c-0.41406,0.03907 -0.53125,0.03125 -0.58203,-0.02734c-0.07032,-0.08984 -0.625,-0.10547 -0.625,-0.02344c0,0.02735 -0.13282,0.05469 -0.29688,0.05469c-0.1914,0 -0.3164,0.02734 -0.35937,0.08203c-0.03907,0.04688 -0.15625,0.08594 -0.25391,0.08594c-0.10547,0 -0.1875,0.02734 -0.1875,0.05469c0,0.03906 -0.27344,0.04687 -0.85547,0.01953c-0.66406,-0.03125 -0.86719,-0.01953 -0.90234,0.03515c-0.08594,0.13672 -1.09766,0.28125 -1.23438,0.16407c-0.12109,-0.09766 -1.10937,-0.01563 -1.28906,0.10937c-0.17187,0.125 -0.71875,0.17969 -1.62891,0.17188c-0.45703,-0.00391 -0.67578,0.01171 -0.67578,0.05078c0,0.16015 -0.95703,0.30859 -1.22656,0.1914c-0.12891,-0.05468 -0.36719,0.01172 -0.36719,0.10547c0,0.0625 -0.09765,0.08203 -0.35937,0.10156c-0.19922,0.00391 -0.375,-0.00781 -0.39063,-0.03515c-0.01562,-0.02735 -0.26562,-0.03125 -0.55468,-0.01563c-0.40625,0.02344 -0.54297,0.05469 -0.63672,0.13672c-0.13282,0.1211 -0.63282,0.19531 -1.26953,0.1836c-0.50391,-0.00782 -1.0586,0.09375 -1.17969,0.21484c-0.11328,0.11328 -0.94922,0.1875 -1.10156,0.09375c-0.07813,-0.04297 -0.14844,-0.04297 -0.28516,0.00391c-0.10156,0.03906 -0.34766,0.0664 -0.54688,0.0664c-0.32421,0 -0.35937,0.01172 -0.41406,0.13281c-0.05078,0.11719 -0.11328,0.13282 -0.54687,0.17579c-0.26172,0.02734 -0.53125,0.04687 -0.58985,0.04687c-0.0625,-0.00781 -0.1289,0.01563 -0.14453,0.04297c-0.01562,0.01953 -0.1914,0.05859 -0.39453,0.08203c-0.20312,0.01563 -0.36719,0.05469 -0.36719,0.07813c0,0.07031 -0.21093,0.05859 -0.2539,-0.01172c-0.08203,-0.13672 -1.28516,0.0664 -1.28516,0.21484c0,0.02734 -0.15234,0.06641 -0.33984,0.08984c-0.1875,0.01563 -0.36719,0.0586 -0.39453,0.08594c-0.07032,0.07422 -0.26954,0.07422 -0.33594,0.00781c-0.06641,-0.0664 -0.73828,-0.01171 -0.73828,0.05469c0,0.02735 -0.10938,0.04688 -0.24219,0.04688c-0.15625,0 -0.25391,0.02734 -0.26953,0.07812c-0.03906,0.10547 -0.7461,0.22266 -1.25781,0.20313c-0.27344,-0.00782 -0.42579,0.00781 -0.42579,0.04687c0,0.03125 -0.11718,0.0586 -0.26953,0.0586c-0.18359,0 -0.30468,0.03515 -0.36328,0.09375c-0.07031,0.0664 -0.21875,0.10156 -0.57031,0.11718c-0.35938,0.01563 -0.51172,0.05078 -0.63281,0.13672c-0.10547,0.07422 -0.28516,0.1211 -0.53907,0.14844c-0.23828,0.02344 -0.39843,0.0625 -0.42578,0.11328c-0.04297,0.0625 -0.07031,0.07031 -0.16015,0.01563c-0.11328,-0.07422 -0.66407,-0.03516 -0.66407,0.04296c0,0.02735 -0.12109,0.05079 -0.26953,0.05079c-0.16797,0 -0.28906,0.02734 -0.33593,0.08203c-0.03516,0.04297 -0.125,0.08203 -0.19532,0.08203c-0.07031,0 -0.13281,0.02344 -0.13281,0.05078c0,0.06641 -0.25391,0.10547 -0.87891,0.14453c-0.61328,0.03516 -0.79296,0.0625 -1.01562,0.16406c-0.09375,0.04297 -0.33984,0.10547 -0.54688,0.13282c-0.70703,0.10937 -0.73828,0.11328 -0.76953,0.22656c-0.03906,0.12109 -0.47656,0.20312 -1.33984,0.24219c-0.31641,0.01562 -0.58594,0.05468 -0.60156,0.08203c-0.01953,0.02734 -0.12891,0.0664 -0.23828,0.08984c-0.10938,0.01953 -0.2461,0.08203 -0.30079,0.12891c-0.10937,0.10547 -0.94921,0.26562 -1.05468,0.20703c-0.10547,-0.06641 -0.73047,0.13672 -0.69532,0.21875c0.01954,0.0625 -0.03906,0.07812 -0.23046,0.08203c-0.14454,0.00781 -0.28125,0.00781 -0.3086,0c-0.10937,-0.01953 -0.82812,0.11328 -0.8789,0.16016c-0.03125,0.03515 -0.09766,0.05468 -0.15235,0.05468c-0.05469,0 -0.11719,0.03516 -0.13281,0.07813c-0.01563,0.04297 -0.15234,0.09375 -0.3125,0.10937c-0.15234,0.02344 -0.29688,0.06641 -0.3125,0.09375c-0.02344,0.02735 -0.32031,0.07422 -0.66016,0.10157c-0.35547,0.02734 -0.63672,0.07812 -0.64843,0.10937c-0.01172,0.03125 -0.08204,0.0625 -0.16407,0.0625c-0.07812,0 -0.1914,0.04688 -0.2539,0.10156c-0.08203,0.07813 -0.26172,0.12891 -0.62891,0.17969c-0.36328,0.04297 -0.54297,0.09375 -0.62109,0.16797c-0.05469,0.05469 -0.16797,0.10156 -0.26172,0.10156c-0.08985,0 -0.16797,0.01953 -0.16797,0.04688c0,0.05078 -0.49609,0.14453 -0.68359,0.13281c-0.1875,-0.01563 -0.875,0.09375 -0.92969,0.14844c-0.03125,0.03515 -0.09766,0.05859 -0.15235,0.05859c-0.05468,0 -0.11718,0.03516 -0.13281,0.08203c-0.01953,0.04297 -0.07422,0.08203 -0.1289,0.08203c-0.0586,0 -0.11329,0.02735 -0.1211,0.0586c-0.01172,0.03515 -0.14062,0.07422 -0.28125,0.08984c-0.14453,0.01563 -0.25781,0.05078 -0.25781,0.07031c0,0.07422 -0.28516,0.1211 -0.34766,0.0625c-0.12109,-0.12109 -0.55859,0 -0.50781,0.14453c0.01953,0.04688 -0.02344,0.07032 -0.14844,0.07032c-0.10156,0 -0.23828,0.03906 -0.30468,0.08984c-0.08985,0.0625 -0.14063,0.07031 -0.19532,0.02734c-0.08203,-0.0664 -0.58203,-0.01953 -0.58203,0.05469c0,0.02735 -0.10547,0.04688 -0.22656,0.04688c-0.19141,0 -0.25781,0.03515 -0.41016,0.19531c-0.09765,0.10547 -0.21875,0.19141 -0.26562,0.19141c-0.04688,0 -0.08594,0.02343 -0.08594,0.05468c0,0.02735 -0.03906,0.05469 -0.08203,0.05469c-0.04297,0 -0.17188,0.08984 -0.28125,0.19531c-0.10156,0.10547 -0.23438,0.19141 -0.28906,0.19141c-0.11719,0 -0.22657,0.10547 -0.22657,0.21094c0,0.04297 -0.04296,0.13281 -0.09375,0.20312c-0.05468,0.06641 -0.13671,0.1836 -0.17968,0.25c-0.04297,0.06641 -0.11719,0.15235 -0.15625,0.19922c-0.03125,0.03516 -0.0625,0.10938 -0.0625,0.15625c0,0.05078 -0.07422,0.11719 -0.16016,0.14453c-0.14844,0.05469 -0.16406,0.08203 -0.20312,0.41797c-0.01563,0.19922 -0.02344,0.50391 0,0.67578c0.01562,0.16797 0.05468,0.51563 0.08203,0.77735c0.03906,0.32421 0.03906,0.48437 -0.00391,0.53515c-0.10547,0.125 -0.01953,0.73828 0.17969,1.25781c0.16797,0.46094 0.20312,0.58204 0.21484,0.80469c0.01172,0.13281 -0.00781,0.28516 -0.02734,0.33985c-0.03906,0.09375 -0.02735,0.22656 0.05859,0.89453c0.02344,0.14843 0.07031,0.29687 0.10938,0.32031c0.04687,0.02734 0.07812,0.13672 0.07812,0.25781c0,0.13281 0.02735,0.22266 0.06641,0.22266c0.04297,0 0.04687,0.14062 0.02734,0.50781c-0.03906,0.59375 -0.01172,0.76563 0.13281,0.91797c0.11329,0.12109 0.13672,0.33594 0.04688,0.42578c-0.06641,0.06641 -0.00391,0.90625 0.0625,0.90625c0.02734,0 0.04687,0.07422 0.04687,0.16406c0,0.09766 0.03516,0.17969 0.08204,0.19922c0.05468,0.01953 0.08203,0.10938 0.08203,0.26953c0,0.13282 0.02343,0.2461 0.05078,0.25782c0.0625,0.02343 0.09765,0.51953 0.04297,0.57421c-0.01953,0.02344 -0.01953,0.27735 0,0.56641c0.02343,0.38672 0.0625,0.55469 0.13281,0.62891c0.09766,0.10547 0.16016,0.33984 0.16016,0.59765c0,0.08594 0.02734,0.16016 0.05468,0.16016c0.07813,0 0.07032,0.36719 -0.00781,0.41797c-0.07031,0.03906 -0.00781,0.78906 0.06641,0.8789c0.02734,0.02735 0.05078,0.10938 0.05078,0.17969c0,0.07813 0.03906,0.16797 0.08594,0.19922c0.07421,0.05469 0.08984,0.1875 0.09375,0.65625c0.01171,0.41406 0.02734,0.58594 0.07421,0.56641c0.04297,-0.01563 0.07422,0.1289 0.10157,0.42578c0.02343,0.25 0.0664,0.46875 0.10156,0.49219c0.04687,0.03125 0.04687,0.0664 0.00391,0.14062c-0.07032,0.11328 -0.03907,0.87891 0.03906,0.92969c0.02734,0.01562 0.05078,0.10156 0.05078,0.1914c0,0.09375 0.03125,0.17579 0.08203,0.19141c0.04688,0.02344 0.08203,0.10547 0.08203,0.19922c0,0.08984 0.04688,0.22656 0.10938,0.30469c0.05859,0.07812 0.10937,0.17578 0.10937,0.21875c0,0.04687 0.07031,0.14062 0.16016,0.21484c0.10156,0.08594 0.14844,0.17188 0.1289,0.23438c-0.02734,0.12109 0.11719,0.25781 0.22657,0.21484c0.04297,-0.01563 0.10937,0.00391 0.14843,0.05469c0.07032,0.07812 0.59375,0.34765 0.69141,0.34765c0.02344,0 0.10547,0.05078 0.17969,0.10938c0.12109,0.09375 0.22656,0.10937 0.78515,0.10937c0.39063,0 0.64454,-0.01953 0.64454,-0.05468c0,-0.03125 0.07031,-0.05469 0.15234,-0.05469c0.08203,0 0.17969,-0.02735 0.20703,-0.05469c0.03516,-0.03125 0.25,-0.06641 0.48047,-0.07031c0.23047,-0.01172 0.4375,-0.03516 0.45312,-0.05469c0.02344,-0.02344 0.1211,-0.03906 0.22266,-0.03906c0.09766,0 0.19141,-0.02344 0.20703,-0.05078c0.01563,-0.02344 0.14453,-0.0625 0.28125,-0.07032c0.17969,-0.02343 0.27735,-0.07421 0.35938,-0.17968c0.07422,-0.09375 0.16797,-0.14063 0.26562,-0.14063c0.35547,0 1.01563,-0.17187 1.10156,-0.28906c0.03907,-0.04297 0.875,-0.16406 0.92969,-0.125c0.06641,0.03906 0.74219,-0.08203 0.77344,-0.13672c0.01562,-0.02344 0.12109,-0.0625 0.23047,-0.08594c0.10937,-0.01953 0.24609,-0.08203 0.30078,-0.13672c0.0625,-0.05078 0.21875,-0.10937 0.36328,-0.13281c0.14453,-0.01953 0.25781,-0.05859 0.25781,-0.08594c0,-0.0625 0.375,-0.10156 0.4336,-0.03906c0.08984,0.08594 0.66015,-0.01172 0.71875,-0.1289c0.0664,-0.1211 0.21875,-0.16016 0.82422,-0.19141c0.25781,-0.01172 0.47265,-0.05078 0.48437,-0.08203c0.00781,-0.02735 0.08594,-0.05469 0.17578,-0.05469c0.08594,0 0.16406,-0.03906 0.1836,-0.08594c0.01953,-0.04297 0.09375,-0.08203 0.17187,-0.08203c0.07813,0 0.20703,-0.03125 0.28906,-0.07812c0.16797,-0.08203 0.64453,-0.12891 0.70313,-0.07032c0.0625,0.05469 0.24219,0.05079 0.24219,-0.01171c0,-0.03125 0.11718,-0.07032 0.26562,-0.08594c0.42188,-0.05469 0.71094,-0.15625 0.85938,-0.29297c0.12109,-0.10938 0.20312,-0.12891 0.64843,-0.14453c0.51563,-0.02344 0.71875,-0.06641 0.66797,-0.14453c-0.01562,-0.01953 0.12891,-0.0586 0.32031,-0.08203c0.1875,-0.01954 0.375,-0.06641 0.40625,-0.09375c0.05079,-0.03907 0.09766,-0.03907 0.15235,0.01171c0.08203,0.07032 0.17187,0.0625 0.78515,-0.0664c0.21875,-0.04297 0.36719,-0.10938 0.40235,-0.17188c0.03906,-0.0664 0.125,-0.09375 0.29687,-0.09375c0.12891,0 0.25782,-0.02734 0.27735,-0.05859c0.02734,-0.04297 0.17578,-0.05469 0.46875,-0.03516c0.24218,0.02344 0.43359,0.01953 0.43359,-0.00781c0,-0.02344 0.12109,-0.0625 0.26953,-0.07812c0.14844,-0.01563 0.31641,-0.05469 0.3711,-0.08985c0.27734,-0.14844 0.51562,-0.22656 0.6914,-0.22656c0.10938,0 0.20313,-0.01953 0.21485,-0.04688c0.02343,-0.0625 0.43359,-0.10156 0.52343,-0.04687c0.08203,0.05469 0.57422,-0.07422 0.64453,-0.16797c0.07813,-0.10156 0.4961,-0.15625 0.54688,-0.07422c0.04687,0.07813 0.30469,0.08203 0.30469,0.00781c0,-0.03515 0.16406,-0.05859 0.3789,-0.05859c0.36328,0 0.50782,-0.05469 0.56641,-0.21484c0.02344,-0.07032 0.91016,-0.16797 1.44922,-0.16407c0.59375,0.00391 0.85156,-0.05078 0.88281,-0.17578c0.01563,-0.0625 0.09375,-0.10937 0.20313,-0.1289c0.48437,-0.07422 0.71093,-0.09375 1.17578,-0.08594c0.47265,0.01172 0.51562,0 0.54297,-0.10156c0.02734,-0.10157 0.30078,-0.20703 0.32812,-0.12891c0.01172,0.01953 0.29688,0.03125 0.64453,0.01953c0.55469,-0.01562 0.62891,-0.02734 0.65235,-0.12109c0.01562,-0.07031 0.09765,-0.10938 0.29296,-0.13672c0.14454,-0.01563 0.38282,-0.0625 0.53125,-0.10156c0.19532,-0.04297 0.27344,-0.04297 0.32422,0.00781c0.08594,0.08594 0.35157,0.08203 0.6211,-0.01563c0.11718,-0.04687 0.29297,-0.07812 0.38672,-0.08593c0.09375,0 0.20312,-0.03125 0.23828,-0.07422c0.03906,-0.04688 0.21875,-0.08594 0.47656,-0.10156c0.27344,-0.01563 0.43359,-0.05469 0.46484,-0.10547c0.03907,-0.06641 0.06641,-0.06641 0.16797,-0.00391c0.08594,0.05469 0.23047,0.06641 0.5625,0.03906c0.24219,-0.02343 0.45703,-0.05468 0.47266,-0.07812c0.07031,-0.08594 0.29297,-0.17188 0.46094,-0.17188c0.10546,0 0.32031,-0.02734 0.48046,-0.05859c0.21875,-0.05078 0.3125,-0.04297 0.41016,0.01172c0.10938,0.05469 0.17969,0.05469 0.42969,-0.02344c0.15625,-0.05078 0.375,-0.09375 0.48828,-0.09375c0.10937,0 0.21094,-0.02734 0.23047,-0.05469c0.01562,-0.03515 0.28515,-0.05468 0.61328,-0.05468c0.41016,0 0.60937,-0.02344 0.66797,-0.07422c0.12109,-0.10157 1.03515,-0.23047 1.12109,-0.16016c0.04297,0.03906 0.25391,0.04688 0.59766,0.02344c0.41406,-0.03125 0.55078,-0.0586 0.60547,-0.13672c0.08203,-0.10938 0.59375,-0.16016 1.625,-0.14844c0.51953,0.00391 0.69531,-0.01172 0.76953,-0.07422c0.13672,-0.11328 0.48828,-0.15234 1.42969,-0.15234c0.6914,0.00391 0.86718,-0.01172 0.94531,-0.08203c0.0625,-0.05469 0.19922,-0.08594 0.38281,-0.08594c0.16797,0 0.375,-0.02734 0.47266,-0.05859c0.13281,-0.05078 0.1914,-0.05078 0.25781,0.0039c0.12109,0.10547 1.24219,0.02735 1.24219,-0.08203c0,-0.07031 0.33984,-0.09765 1.11328,-0.09375c0.05078,0 0.09375,-0.01953 0.09375,-0.05078c0,-0.01953 0.10937,-0.04297 0.24609,-0.04297c0.13281,0 0.36719,-0.02734 0.52344,-0.05859c0.20703,-0.04688 0.30078,-0.04688 0.34375,0c0.03906,0.03906 0.28516,0.05859 0.62109,0.05859c0.45703,0 0.56641,-0.01562 0.59375,-0.08594c0.02735,-0.07421 0.17578,-0.08593 1.1211,-0.0664c0.875,0.00781 1.10547,0 1.18359,-0.0625c0.12109,-0.10547 1.10938,-0.14453 1.22266,-0.05469c0.10156,0.08984 1.14453,0.03125 1.25781,-0.06641c0.05078,-0.04296 0.24219,-0.0664 0.50781,-0.0664c0.23047,0.00781 0.45313,-0.02344 0.48828,-0.05078c0.04688,-0.03516 0.08203,-0.02735 0.10157,0.03906c0.03515,0.08203 0.10156,0.08984 0.62109,0.05469c0.32031,-0.01953 0.60937,-0.0586 0.63672,-0.08203c0.03515,-0.01954 0.28515,-0.05469 0.5664,-0.07032c0.42188,-0.02343 0.51954,-0.01172 0.54297,0.05469c0.02735,0.07031 0.1211,0.07813 0.61328,0.04297c0.32032,-0.01563 0.61719,-0.05859 0.65625,-0.09375c0.0625,-0.05859 0.85547,-0.03906 1.8086,0.04687c0.32031,0.02735 0.41797,0.01954 0.49609,-0.05078c0.08594,-0.07812 0.54297,-0.17187 1.29297,-0.2539c0.18359,-0.02344 0.33594,-0.06641 0.35156,-0.10547c0.01172,-0.03906 0.04688,-0.06641 0.07813,-0.06641c0.08984,0 0.21875,-0.16015 0.17969,-0.21875c-0.01954,-0.03515 0.0664,-0.14844 0.1875,-0.26172c0.1289,-0.10937 0.22656,-0.23047 0.22656,-0.26172c0,-0.04687 0.05469,-0.05859 0.13672,-0.03906c0.09765,0.01563 0.13672,0 0.13672,-0.0625c0,-0.04297 0.04296,-0.16015 0.09765,-0.2539c0.08594,-0.14063 0.08594,-0.1875 0.02344,-0.28516c-0.05078,-0.07813 -0.05469,-0.13281 -0.02344,-0.15625c0.03516,-0.01563 0.07813,-0.25391 0.10156,-0.51563c0.01954,-0.26562 0.0586,-0.49609 0.08204,-0.51562c0.11328,-0.06641 -0.01563,-1.11719 -0.14844,-1.19531c-0.03906,-0.02344 -0.08985,-0.19922 -0.10547,-0.39844c-0.01953,-0.19922 -0.05859,-0.375 -0.08594,-0.39063c-0.07422,-0.04296 -0.0625,-0.33984 0.00781,-0.38671c0.04688,-0.01954 0.05079,-0.13672 0.03125,-0.32813c-0.03906,-0.32031 -0.13281,-0.58594 -0.19921,-0.54687c-0.02344,0.01562 -0.05469,-0.03907 -0.07032,-0.11719c-0.01172,-0.07813 0.00391,-0.14844 0.03516,-0.16406c0.07812,-0.02735 0.05078,-0.90625 -0.02734,-0.90625c-0.02735,0 -0.04688,-0.07813 -0.04688,-0.16407c0,-0.09375 -0.03516,-0.18359 -0.07812,-0.19922c-0.05079,-0.02343 -0.08594,-0.1914 -0.1211,-0.5625c-0.02734,-0.29296 -0.03906,-0.57421 -0.03125,-0.61718c0.00391,-0.04297 -0.00781,-0.32032 -0.02344,-0.61719c-0.02734,-0.44922 -0.04687,-0.53516 -0.13281,-0.55859c-0.08203,-0.01954 -0.10156,-0.10938 -0.13672,-0.45704c-0.01953,-0.24218 -0.05859,-0.49218 -0.08593,-0.55859c-0.02735,-0.07422 -0.02344,-0.13672 0.01171,-0.15625c0.03516,-0.02344 0.04688,-0.15234 0.02735,-0.34766c-0.06641,-0.63671 -0.10547,-0.80859 -0.1836,-0.86328c-0.09375,-0.0664 -0.20312,-1.0625 -0.125,-1.15625c0.02735,-0.03515 0.03125,-0.21484 0.01563,-0.40234c-0.02734,-0.29297 -0.04688,-0.34766 -0.12109,-0.32422c-0.07422,0.01563 -0.09375,-0.02344 -0.08594,-0.20703c0,-0.125 0.01172,-0.23438 0.02734,-0.25391c0.01563,-0.01562 0,-0.28906 -0.04297,-0.61718c-0.0625,-0.46094 -0.10156,-0.60157 -0.17187,-0.6211c-0.07031,-0.02344 -0.10938,-0.14844 -0.16016,-0.5625c-0.04297,-0.36328 -0.04687,-0.55078 -0.01172,-0.58984c0.07422,-0.07422 0.07422,-0.53125 0,-0.53125c-0.03125,0 -0.05468,-0.14453 -0.05468,-0.32422c0,-0.23828 -0.01954,-0.33203 -0.08204,-0.35938c-0.04296,-0.01562 -0.08203,-0.07812 -0.08203,-0.13671c0,-0.0625 -0.01953,-0.11719 -0.04687,-0.12891c-0.06641,-0.01953 -0.11719,-0.86328 -0.05469,-0.89844c0.0625,-0.04297 0.0625,-0.41406 0,-0.41406c-0.02734,0 -0.06641,-0.09766 -0.08984,-0.22656c-0.04297,-0.26172 -0.1211,-0.41797 -0.28516,-0.58985c-0.08203,-0.07422 -0.125,-0.1875 -0.125,-0.30078c0,-0.13281 -0.04687,-0.21484 -0.16406,-0.3164c-0.08985,-0.07813 -0.16797,-0.16407 -0.16797,-0.19922c0,-0.09766 -0.30078,-0.35157 -0.42188,-0.35157c-0.20312,0 -0.37109,-0.09375 -0.45703,-0.24609c-0.04297,-0.08594 -0.14062,-0.16016 -0.23047,-0.17969c-0.08203,-0.01562 -0.15234,-0.04687 -0.15234,-0.07031c0,-0.08984 -0.47656,-0.13281 -1.18359,-0.11719c-0.48438,0.01172 -0.73828,-0.0039 -0.75782,-0.04297c-0.04687,-0.0664 -0.5664,-0.07031 -0.85937,-0.0039zm2.21484,1.51953c0.15235,0.05078 0.36328,0.1875 0.5,0.32031c0.125,0.13281 0.27344,0.25 0.31641,0.26563c0.04297,0.02343 0.10547,0.10547 0.12109,0.1875c0.02344,0.08203 0.08985,0.21875 0.14844,0.30859c0.11719,0.16016 0.17578,0.4375 0.26953,1.17578c0.03125,0.24219 0.07813,0.51172 0.10938,0.60547c0.05859,0.20313 0.09375,0.45313 0.17187,1.12891c0.08203,0.80859 0.19531,1.60547 0.26172,1.84765c0.03125,0.1211 0.05859,0.41407 0.05859,0.64844c0,0.23047 0.02344,0.43359 0.05079,0.44922c0.02734,0.01953 0.0664,0.22266 0.08984,0.45703c0.01953,0.23438 0.0625,0.49219 0.08984,0.57031c0.02735,0.07813 0.08985,0.48438 0.13282,0.91016c0.04296,0.42578 0.09765,0.82031 0.1289,0.88281c0.02735,0.0586 0.07422,0.32813 0.10156,0.60547c0.03516,0.26953 0.09375,0.73438 0.14454,1.01953c0.04296,0.28906 0.10156,0.6836 0.13671,0.88281c0.03125,0.19922 0.0586,0.48438 0.0586,0.64063c0,0.14844 0.02344,0.29687 0.05078,0.33203c0.02734,0.02734 0.08203,0.33984 0.11719,0.70313c0.03125,0.35937 0.08203,0.69531 0.10937,0.75c0.02735,0.05468 0.0625,0.32031 0.08203,0.58593c0.02735,0.52735 0.20313,1.63282 0.29688,1.90625c0.07422,0.22266 0.08203,1.69922 0.0039,1.69922c-0.02734,0 -0.05468,0.03906 -0.05468,0.08203c0,0.04688 -0.02344,0.08594 -0.05469,0.08594c-0.02734,0 -0.05469,0.03125 -0.05469,0.07031c0,0.03907 -0.08203,0.16407 -0.18359,0.27344c-0.125,0.14453 -0.22266,0.20703 -0.32813,0.20703c-0.08593,0 -0.1914,0.03125 -0.23047,0.07422c-0.07812,0.07813 -0.05859,0.07813 -3.18359,0.11719c-0.44922,0.00781 -1.09375,0.03515 -1.42578,0.0664c-0.33203,0.03516 -1.13281,0.0625 -1.77344,0.0625c-0.65234,0 -1.375,0.03125 -1.63281,0.07032c-0.35156,0.05078 -0.48047,0.05078 -0.53516,0.0039c-0.08203,-0.07031 -0.57031,-0.03125 -0.67578,0.05078c-0.03515,0.02735 -0.3789,0.05079 -0.76953,0.05079c-1.13672,0.0039 -2.01953,0.05468 -2.05078,0.10937c-0.02344,0.03125 -0.28906,0.05469 -0.63672,0.05078c-0.33203,-0.00781 -0.84766,0.01953 -1.14844,0.0586c-0.74609,0.09375 -1.16797,0.12109 -2.16406,0.14843c-0.46484,0.01172 -0.87891,0.04688 -0.91016,0.07422c-0.03515,0.02735 -0.35546,0.06641 -0.71484,0.08203c-0.36328,0.02344 -0.75,0.0586 -0.86719,0.08594c-0.21875,0.05859 -1.03515,0.125 -1.64062,0.12891c-0.19922,0.0039 -0.38281,0.02343 -0.40625,0.05078c-0.02344,0.01953 -0.1875,0.02734 -0.36719,0.0039c-0.22656,-0.02734 -0.33594,-0.01562 -0.36328,0.02735c-0.04297,0.07031 -1.16406,0.20312 -2.23438,0.26953c-0.33593,0.02344 -0.64843,0.06641 -0.6875,0.10156c-0.04296,0.03906 -0.38281,0.08203 -0.76171,0.09766c-0.65235,0.03906 -1.26563,0.10937 -2.30469,0.28125c-0.25781,0.04297 -0.50391,0.07812 -0.55078,0.07031c-0.25782,-0.00391 -0.98828,0.08984 -0.98828,0.13281c0,0.02344 -0.16797,0.04688 -0.38282,0.03907c-0.20703,-0.00391 -0.41797,0.01562 -0.44922,0.05078c-0.07031,0.05468 -0.24609,0.08203 -1.3125,0.17187c-0.34765,0.03125 -0.70312,0.08203 -0.78515,0.11328c-0.08203,0.02735 -0.26953,0.05469 -0.41797,0.05469c-0.16406,0 -0.27344,0.03125 -0.28516,0.06641c-0.01562,0.05078 -0.16015,0.07812 -0.42187,0.08593c-0.21875,0.00391 -0.42188,0.03125 -0.46094,0.0586c-0.03906,0.02344 -0.36328,0.07812 -0.71875,0.10937c-0.36328,0.03516 -0.67187,0.08594 -0.6875,0.11328c-0.01562,0.02735 -0.24219,0.06641 -0.5,0.08204c-0.25781,0.01953 -0.58594,0.05859 -0.73828,0.09375c-0.14844,0.02734 -0.375,0.07031 -0.49609,0.08593c-0.1211,0.02344 -0.2461,0.0625 -0.28125,0.08985c-0.03125,0.02343 -0.26563,0.05859 -0.51954,0.08203c-0.39453,0.02734 -0.49609,0.05469 -0.70312,0.20312l-0.23438,0.17188l-1.10937,0.03515c-0.84766,0.02735 -1.15234,0.05469 -1.29688,0.1211c-0.10546,0.04687 -0.3789,0.11328 -0.60156,0.14844c-0.74219,0.10937 -0.82422,0.125 -0.82422,0.16406c0,0.02344 -0.18359,0.05078 -0.39453,0.0664c-0.22265,0.01563 -0.48047,0.06641 -0.57812,0.11719c-0.10547,0.05469 -0.3086,0.09375 -0.50391,0.09375c-0.18359,0 -0.34766,0.02735 -0.36328,0.05469c-0.01563,0.03125 -0.14453,0.05469 -0.27344,0.05469c-0.13281,0 -0.25781,0.02734 -0.28125,0.05859c-0.02344,0.03906 -0.125,0.05078 -0.26172,0.03906c-0.17578,-0.01953 -0.26562,0 -0.35937,0.07422c-0.09375,0.07422 -0.21875,0.10547 -0.47656,0.10547c-0.1875,0 -0.35547,0.01953 -0.375,0.04688c-0.01563,0.02343 -0.17969,0.0664 -0.36719,0.08203c-0.1836,0.02343 -0.39453,0.07812 -0.46485,0.1289c-0.08203,0.05078 -0.19921,0.07032 -0.30859,0.05469c-0.11328,-0.01562 -0.21484,0.00391 -0.27344,0.05469c-0.05468,0.05078 -0.29297,0.10547 -0.57812,0.13281c-0.26172,0.03125 -0.54297,0.07813 -0.61719,0.10547c-0.07812,0.03125 -0.32031,0.07812 -0.53906,0.10937c-0.22656,0.03516 -0.45703,0.09375 -0.52344,0.13672c-0.06641,0.05078 -0.24219,0.08594 -0.40625,0.08594c-0.15234,0 -0.29687,0.01953 -0.3125,0.04688c-0.01562,0.02343 -0.15234,0.0625 -0.30078,0.07812c-0.15234,0.01563 -0.33594,0.07031 -0.40625,0.11719c-0.07813,0.05469 -0.23438,0.08203 -0.41797,0.08203c-0.21875,-0.00781 -0.30859,0.01172 -0.34375,0.08203c-0.03516,0.0625 -0.12891,0.08984 -0.3125,0.08984c-0.14453,0 -0.30859,0.03516 -0.37109,0.08204c-0.05469,0.04296 -0.22266,0.08203 -0.36719,0.08203c-0.16016,0 -0.29688,0.03125 -0.34375,0.08203c-0.05469,0.05078 -0.1875,0.08203 -0.35938,0.08203c-0.16406,0 -0.35156,0.04687 -0.47265,0.11328c-0.12891,0.07031 -0.3125,0.10938 -0.49219,0.10938c-0.21875,0 -0.28906,0.01953 -0.28906,0.08203c0,0.0664 -0.07422,0.08203 -0.32031,0.08203c-0.17579,0 -0.34375,0.02734 -0.37891,0.0625c-0.05859,0.05859 -0.52734,0.16797 -1.14063,0.27344c-0.18359,0.02734 -0.36718,0.07421 -0.41406,0.10156c-0.04687,0.02734 -0.16406,0.0664 -0.26172,0.08594c-0.09765,0.01562 -0.17578,0.05468 -0.17578,0.08203c0,0.02343 -0.15234,0.0625 -0.33984,0.08593c-0.19141,0.01954 -0.36328,0.0586 -0.37891,0.08594c-0.01562,0.02735 -0.22656,0.07813 -0.46094,0.10547c-0.28515,0.03906 -0.44921,0.08203 -0.48437,0.13672c-0.02734,0.05469 -0.13281,0.08203 -0.32813,0.08203c-0.16406,0.00781 -0.32812,0.03906 -0.39062,0.08594c-0.05859,0.04297 -0.19141,0.08203 -0.29688,0.08203c-0.10546,0 -0.26171,0.03125 -0.35546,0.07812c-0.3125,0.14063 -0.74219,0.20704 -1.03125,0.16797c-0.38672,-0.05468 -0.7461,-0.21875 -0.85938,-0.40234c-0.05469,-0.08203 -0.10937,-0.16016 -0.125,-0.17578c-0.13672,-0.11719 -0.27344,-0.45703 -0.27344,-0.67188c0,-0.13281 -0.02343,-0.26562 -0.05468,-0.29687c-0.02735,-0.02735 -0.08985,-0.41016 -0.12891,-0.83985c-0.03516,-0.42968 -0.10156,-0.8164 -0.13672,-0.84765c-0.03516,-0.03906 -0.06641,-0.22266 -0.06641,-0.41016c0,-0.1914 -0.01953,-0.40625 -0.05468,-0.48437c-0.02735,-0.08203 -0.0625,-0.34766 -0.08203,-0.60157c-0.01954,-0.24609 -0.07032,-0.53906 -0.10938,-0.64453c-0.04297,-0.10547 -0.08594,-0.37109 -0.10156,-0.57812c-0.01953,-0.21485 -0.0625,-0.52344 -0.08985,-0.69141c-0.03125,-0.16406 -0.07031,-0.51953 -0.09375,-0.78125c-0.01562,-0.30859 -0.05468,-0.50781 -0.10546,-0.54687c-0.04688,-0.03907 -0.07422,-0.17578 -0.07422,-0.34766c-0.00782,-0.25 -0.08985,-0.875 -0.27344,-1.99219c-0.02734,-0.17968 -0.07422,-0.63281 -0.10156,-1.00781c-0.02735,-0.375 -0.07032,-0.69922 -0.10157,-0.71875c-0.02734,-0.01953 -0.07421,-0.22266 -0.09375,-0.44922c-0.01953,-0.22656 -0.05468,-0.42578 -0.08203,-0.4414c-0.02734,-0.01563 -0.0625,-0.1875 -0.07812,-0.38672c-0.01563,-0.19922 -0.08203,-0.66797 -0.14453,-1.04688c-0.0586,-0.38281 -0.14063,-0.98828 -0.17969,-1.35156c-0.03125,-0.36328 -0.08984,-0.67969 -0.11719,-0.69922c-0.03125,-0.01953 -0.0625,-0.28906 -0.08203,-0.59766c-0.01953,-0.47265 -0.00781,-0.57421 0.0625,-0.61328c0.05469,-0.03125 0.09766,-0.16406 0.12109,-0.35156c0.01954,-0.16406 0.0586,-0.30469 0.08594,-0.30469c0.02344,0 0.19141,-0.15234 0.375,-0.33593c0.23438,-0.2461 0.41016,-0.36719 0.6211,-0.44532c0.41015,-0.14843 1.33593,-0.42968 1.66015,-0.51172c0.15625,-0.03515 0.31641,-0.07812 0.35938,-0.09375c0.04297,-0.01953 0.33203,-0.10156 0.64843,-0.18359c0.30469,-0.08203 0.5586,-0.17187 0.5586,-0.19922c0,-0.02734 0.09375,-0.05078 0.20703,-0.05078c0.11719,0 0.33594,-0.03125 0.48437,-0.07422c0.14844,-0.04687 0.375,-0.09375 0.5,-0.11719c0.1211,-0.01562 0.26954,-0.07031 0.32813,-0.10937c0.05469,-0.04297 0.16406,-0.08203 0.24219,-0.08203c0.07812,0 0.33984,-0.0625 0.57812,-0.14453c0.23438,-0.07813 0.57031,-0.16016 0.73438,-0.1875c0.16406,-0.03516 0.42578,-0.08985 0.57422,-0.13282c0.46875,-0.13281 0.75781,-0.20312 0.98828,-0.24609c0.12109,-0.02344 0.26953,-0.06641 0.33203,-0.10547c0.05859,-0.03515 0.29687,-0.08203 0.51953,-0.11719c0.22656,-0.03125 0.41797,-0.08203 0.42969,-0.10937c0.01172,-0.02734 0.1914,-0.07422 0.39843,-0.09375c0.21094,-0.02344 0.37891,-0.05469 0.37891,-0.07813c0,-0.02343 0.11719,-0.05859 0.26563,-0.08203c0.14062,-0.01562 0.49218,-0.09375 0.77734,-0.16406c0.28516,-0.07422 0.66016,-0.16016 0.82422,-0.19531c0.76172,-0.15235 1.16015,-0.25781 1.45703,-0.36719c0.11719,-0.05078 0.46484,-0.125 0.76562,-0.16016c0.70313,-0.09375 1.11719,-0.18359 1.30079,-0.27734c0.07812,-0.04297 0.22265,-0.07812 0.30859,-0.07812c0.09375,0 0.23437,-0.02735 0.32422,-0.0586c0.08203,-0.03515 0.32422,-0.08203 0.53125,-0.10547c0.21094,-0.02343 0.39062,-0.0664 0.41406,-0.10156c0.01563,-0.02734 0.26172,-0.07031 0.54297,-0.09375c0.35547,-0.02734 0.51953,-0.05859 0.54297,-0.11328c0.01562,-0.05469 0.12109,-0.07813 0.32812,-0.07813c0.16407,0 0.35157,-0.02734 0.41797,-0.0664c0.06641,-0.03906 0.2461,-0.08203 0.39453,-0.10547c0.70703,-0.10547 1.39063,-0.22656 1.56641,-0.28125c0.10156,-0.03906 0.37891,-0.09375 0.60156,-0.13281c0.46094,-0.08203 1.4336,-0.27344 1.8125,-0.35547c0.13672,-0.03516 0.48438,-0.09375 0.76953,-0.14063c0.28516,-0.03906 0.79297,-0.125 1.125,-0.1875c0.33594,-0.05859 0.74219,-0.13672 0.90625,-0.16406c0.16407,-0.02734 0.38672,-0.07031 0.49219,-0.10547c0.10547,-0.02734 0.36719,-0.0664 0.57813,-0.08594c0.38671,-0.03515 1.15234,-0.15625 1.64453,-0.2539c0.29687,-0.0625 0.6914,-0.1211 1.375,-0.21485c0.23828,-0.03515 0.59765,-0.09375 0.79297,-0.14062c0.19921,-0.04297 0.58203,-0.10547 0.85156,-0.13672c0.79687,-0.08984 1.63281,-0.21094 1.86719,-0.26953c0.12109,-0.03516 0.39062,-0.0625 0.59375,-0.0625c0.22265,0 0.4375,-0.03125 0.53125,-0.08203c0.10546,-0.05469 0.3789,-0.09375 0.77343,-0.10938c0.33594,-0.01172 0.63672,-0.05078 0.67578,-0.07812c0.03125,-0.02735 0.34766,-0.07813 0.69141,-0.10938c0.625,-0.0625 0.87891,-0.08984 2.19531,-0.25c0.37891,-0.04687 0.97266,-0.10937 1.31641,-0.14062c0.34766,-0.02735 0.94141,-0.09375 1.32031,-0.14063c0.37891,-0.04687 0.96094,-0.10937 1.28906,-0.13281c0.33594,-0.02734 0.75,-0.07422 0.9336,-0.10937c0.39062,-0.06641 2.0039,-0.17579 2.0625,-0.13672c0.02344,0.01172 0.05469,0 0.07422,-0.02735c0.04297,-0.0664 0.46484,-0.11718 1.33203,-0.14453c0.41797,-0.01562 0.83594,-0.05078 0.92187,-0.07812c0.14453,-0.04297 0.80078,-0.08203 2.62891,-0.14063c0.23828,-0.01172 0.44531,-0.04687 0.46875,-0.07422c0.01953,-0.03125 0.33984,-0.05859 0.78906,-0.05859c0.41797,0 0.78516,-0.02344 0.81641,-0.03906c0.0625,-0.03907 0.20312,-0.05078 1.74609,-0.10938c0.52735,-0.01953 1.39453,-0.05469 1.92188,-0.08984c3.01562,-0.16016 4.19922,-0.16406 4.6289,-0.01172zm0,0"/>
   <path id="svg_2" fill-rule="nonzero" fill="#316099" d="m47.33594,5.5c-0.16016,0.00781 -0.29297,0.04297 -0.29297,0.07031c0,0.02735 -0.08594,0.06641 -0.19141,0.08594c-0.10547,0.01953 -0.1914,0.05859 -0.1914,0.07813c0,0.02734 -0.12891,0.07421 -0.28125,0.10546c-0.17578,0.03907 -0.3711,0.13672 -0.53125,0.26563c-0.29688,0.23828 -0.9375,0.88281 -1.03907,1.04297c-0.12109,0.1875 -0.34375,0.66406 -0.34375,0.72656c0,0.03906 -0.02343,0.06641 -0.04687,0.06641c-0.05469,0 -0.23047,0.38672 -0.23047,0.5c0,0.04687 -0.03516,0.15234 -0.08203,0.23828c-0.04297,0.08984 -0.09766,0.2539 -0.11328,0.37109c-0.02344,0.1211 -0.05469,0.21485 -0.07813,0.21485c-0.01953,0 -0.07031,0.24218 -0.10937,0.53515c-0.03906,0.29688 -0.09766,0.55469 -0.125,0.57813c-0.03906,0.02343 -0.06641,0.65234 -0.08203,1.76562c-0.02344,1.54688 -0.01953,1.73438 0.0664,1.80078c0.0625,0.05469 0.08594,0.17188 0.08594,0.45313c0,0.21484 0.02344,0.38281 0.05469,0.38281c0.0625,0 0.0664,0.44531 0.0039,0.66016c-0.03125,0.12109 -0.07421,0.14453 -0.35937,0.17578c-0.18359,0.02734 -0.50781,0.07031 -0.72656,0.10547c-0.30469,0.04297 -0.51563,0.03906 -0.98828,-0.03516c-0.32422,-0.04297 -0.64063,-0.10156 -0.70313,-0.12891c-0.53125,-0.24609 -0.66406,-0.30859 -0.69922,-0.375c-0.02344,-0.03906 -0.07812,-0.07421 -0.11719,-0.07421c-0.09765,0 -0.58203,-0.52344 -0.58203,-0.63282c0,-0.05078 -0.03906,-0.10156 -0.08203,-0.11718c-0.05469,-0.01954 -0.08203,-0.10938 -0.08203,-0.2461c0,-0.11719 -0.02344,-0.21484 -0.04297,-0.21484c-0.1289,0 -0.33594,-1.42578 -0.23828,-1.6211c0.02734,-0.0664 0.06641,-0.21093 0.08984,-0.32812c0.01563,-0.10938 0.05469,-0.20313 0.08204,-0.20313c0.03125,0 0.05468,-0.04296 0.05468,-0.09765c0,-0.0625 0.04297,-0.15625 0.09766,-0.22266c0.05078,-0.05859 0.16406,-0.20312 0.25391,-0.30859c0.08593,-0.10938 0.1914,-0.19922 0.23437,-0.19922c0.03906,0 0.07031,-0.02734 0.07031,-0.05469c0,-0.03125 0.03516,-0.05469 0.07813,-0.05469c0.03906,0 0.13672,-0.05078 0.21484,-0.10937c0.07813,-0.0625 0.25781,-0.12891 0.40625,-0.14453c0.14063,-0.02344 0.28906,-0.0586 0.32813,-0.08594c0.03515,-0.03125 0.23047,-0.05078 0.4414,-0.04687c0.20313,0.00781 0.39844,0.00781 0.4336,0.00781c0.12109,-0.01172 0.29687,-0.21485 0.29687,-0.35547c0,-0.07422 0.02735,-0.16016 0.05469,-0.17578c0.03125,-0.01563 0.05469,-0.1211 0.05469,-0.22656l0,-0.1875l-0.76563,0c-0.45312,0 -0.77734,0.02343 -0.80078,0.05468c-0.01562,0.02735 -0.11328,0.05469 -0.20703,0.05469c-0.10156,0 -0.24609,0.03906 -0.33594,0.08594c-0.09375,0.04687 -0.26953,0.10937 -0.39453,0.13672c-0.13281,0.03125 -0.32031,0.10937 -0.42969,0.18359c-0.24218,0.16406 -0.80078,0.72656 -0.80078,0.80469c0,0.03125 -0.02344,0.05859 -0.05469,0.05859c-0.02734,0 -0.05468,0.04297 -0.05468,0.10156c0,0.05469 -0.02735,0.125 -0.05469,0.15235c-0.03125,0.03515 -0.10547,0.22265 -0.16016,0.42578c-0.13281,0.45312 -0.22265,1.91406 -0.12109,1.91406c0.03516,0 0.0625,0.0586 0.0625,0.13281c0,0.21875 0.125,0.71485 0.20312,0.79297c0.03907,0.03907 0.07032,0.10938 0.07032,0.15235c0,0.04687 0.02343,0.07812 0.05078,0.07812c0.02734,0 0.0664,0.04297 0.08203,0.10156c0.08203,0.25391 1.03125,1.11329 1.22266,1.11329c0.03906,0 0.07031,0.01953 0.07031,0.04687c0,0.03125 0.1289,0.07813 0.27734,0.11719c0.15235,0.03906 0.27344,0.08984 0.27344,0.10937c0,0.02344 0.13281,0.0625 0.28906,0.08594c0.15625,0.01953 0.32031,0.0625 0.36328,0.10156c0.11719,0.08985 2.44922,0.08594 2.54297,-0.00781c0.11328,-0.11719 0.53516,-0.08594 0.65235,0.05469c0.05859,0.05859 0.10546,0.14844 0.10546,0.1875c0,0.03906 0.01563,0.07422 0.04297,0.08594c0.02344,0.00781 0.11328,0.1289 0.20313,0.26171c0.09375,0.13672 0.24609,0.32422 0.34375,0.41016c0.10547,0.09375 0.22656,0.21094 0.27734,0.26172c0.1836,0.17578 0.5586,0.37891 0.81641,0.43359c0.14453,0.03516 0.30859,0.08985 0.35547,0.11719c0.1289,0.06641 0.90625,0.06641 0.94531,0c0.01562,-0.02734 0.17578,-0.06641 0.35547,-0.08984c0.17578,-0.01953 0.39062,-0.07032 0.47265,-0.11328c0.08204,-0.04688 0.1875,-0.07813 0.22657,-0.07813c0.04297,0 0.07812,-0.02344 0.07812,-0.04297c0,-0.02734 0.06641,-0.08203 0.15235,-0.1289c0.08203,-0.03907 0.24218,-0.17188 0.35156,-0.28125c0.13281,-0.13282 0.25781,-0.20704 0.34375,-0.20704l0.14062,0l-0.00781,0.69922c-0.01172,1.00782 -0.08203,2.20703 -0.15234,2.52344c-0.05469,0.26563 -0.125,0.46094 -0.23047,0.63672c-0.02735,0.04297 -0.07031,0.13672 -0.10547,0.20312c-0.05469,0.13672 -0.58594,0.67969 -0.66016,0.67969c-0.02734,0 -0.05859,0.04688 -0.08203,0.10547c-0.01953,0.07422 -0.11328,0.125 -0.33203,0.16797c-0.36719,0.07812 -0.58203,0.03516 -0.79297,-0.16016c-0.15234,-0.13672 -0.16797,-0.17968 -0.20312,-0.67578c-0.02735,-0.46484 -0.01953,-0.54687 0.07422,-0.66797c0.05468,-0.08203 0.13671,-0.14843 0.17578,-0.14843c0.03125,0 0.0625,-0.02735 0.0625,-0.05469c0,-0.03516 0.03906,-0.05469 0.08984,-0.05469c0.09375,0 0.24219,-0.12891 0.24219,-0.21094c0,-0.07031 -0.19141,-0.67187 -0.28125,-0.85547c-0.06641,-0.14843 -0.07813,-0.14843 -0.42969,-0.11718c-0.44922,0.03906 -0.64062,0.11328 -0.87109,0.32031c-0.21485,0.19531 -0.33985,0.4375 -0.33985,0.65234c0,0.08203 -0.02343,0.15235 -0.05468,0.15235c-0.07032,0 -0.07032,0.77734 0.0039,1.1875c0.06641,0.35937 0.21485,0.62109 0.52735,0.91406c0.41406,0.39844 0.96093,0.53125 1.75781,0.4375c0.29687,-0.03906 0.54687,-0.08203 0.5664,-0.10938c0.01563,-0.02343 0.11329,-0.0625 0.21875,-0.08593c0.24219,-0.05469 0.3711,-0.14063 0.77735,-0.51563c0.34765,-0.32812 0.67578,-0.77734 0.73047,-1.01562c0.02343,-0.08203 0.0625,-0.14844 0.08984,-0.14844c0.02734,0 0.04688,-0.03516 0.04688,-0.07422c0,-0.03125 0.03906,-0.13672 0.08984,-0.22266c0.04297,-0.09375 0.10937,-0.35546 0.14062,-0.58203c0.03907,-0.23047 0.08985,-0.43359 0.11719,-0.44922c0.07031,-0.05078 0.16406,-3.03515 0.125,-4.25781c-0.01953,-0.6289 -0.01172,-1.08594 0.01563,-1.08594c0.02734,0 0.0664,-0.08984 0.08593,-0.19921c0.01954,-0.10547 0.08594,-0.28125 0.14454,-0.38672c0.05859,-0.10547 0.10546,-0.27735 0.10546,-0.37891c0,-0.17969 -0.01171,-0.19531 -0.16406,-0.19531c-0.08594,0 -0.16406,0.02344 -0.16406,0.05469c0,0.14843 -0.63281,-0.03125 -0.69922,-0.20313c-0.01562,-0.03906 -0.09766,-0.07031 -0.18359,-0.07031c-0.1836,0 -0.19532,0.03125 -0.24219,0.9375c-0.01563,0.32031 -0.05469,0.58203 -0.08984,0.59375c-0.02735,0.01172 -0.04688,0.09375 -0.04688,0.18359c0,0.26953 -0.12109,0.92969 -0.17187,0.92969c-0.02735,0 -0.05079,0.03906 -0.05079,0.09375c0,0.07812 -0.24609,0.51953 -0.41015,0.72266c-0.13672,0.17578 -0.53125,0.5625 -0.57813,0.5625c-0.02734,0 -0.0625,0.05078 -0.08203,0.10937c-0.01562,0.0625 -0.0625,0.11328 -0.09765,0.11328c-0.03907,0 -0.13672,0.04297 -0.23047,0.09375c-0.22657,0.1211 -0.98047,0.125 -1.19532,0.00391c-0.25,-0.13672 -0.7539,-0.60156 -0.7539,-0.6836c0,-0.04296 -0.01953,-0.07812 -0.04688,-0.07812c-0.02734,0 -0.0664,-0.05859 -0.08593,-0.13672c-0.01954,-0.07812 -0.0586,-0.13672 -0.08594,-0.13672c-0.03125,0 -0.05469,-0.14062 -0.05469,-0.30469c0,-0.27734 0.01172,-0.30468 0.13672,-0.33593c0.07812,-0.01563 0.13672,-0.05469 0.13672,-0.07813c0,-0.02734 0.07812,-0.05859 0.16406,-0.08203c0.09375,-0.02344 0.16797,-0.0625 0.16797,-0.08984c0,-0.02735 0.03516,-0.04688 0.08203,-0.04688c0.03516,0 0.09766,-0.03515 0.12109,-0.07422c0.01954,-0.03906 0.12891,-0.10156 0.23438,-0.14843c0.10547,-0.04297 0.21484,-0.10938 0.23437,-0.14844c0.02344,-0.03906 0.06641,-0.07031 0.10157,-0.07031c0.02734,0 0.10937,-0.0625 0.17968,-0.14063c0.07032,-0.07422 0.14844,-0.13672 0.17188,-0.13672c0.07422,0 0.99219,-0.89844 1.28906,-1.26172c0.10547,-0.13281 0.22266,-0.27734 0.26172,-0.3164c0.03516,-0.03516 0.06641,-0.09375 0.06641,-0.125c0,-0.03516 0.02343,-0.0625 0.05468,-0.0625c0.02735,0 0.09375,-0.08203 0.14454,-0.17969c0.04687,-0.09375 0.10937,-0.1875 0.125,-0.20313c0.02343,-0.01953 0.0664,-0.08984 0.10546,-0.16796c0.08204,-0.17188 0.19141,-0.34766 0.23438,-0.38672c0.02344,-0.01563 0.06641,-0.12891 0.10547,-0.26172c0.03906,-0.12891 0.08594,-0.23438 0.10937,-0.23438c0.02344,0 0.0586,-0.08593 0.07813,-0.1914c0.01953,-0.10547 0.05859,-0.19141 0.08594,-0.19141c0.03515,0 0.05468,-0.03906 0.05468,-0.08984c0,-0.05078 0.03516,-0.16407 0.07032,-0.25782c0.25,-0.58593 0.34375,-1.08984 0.39843,-2.10937c0.03125,-0.59375 0.01953,-0.71484 -0.10156,-1.18359c-0.14844,-0.5625 -0.24609,-0.82813 -0.31641,-0.82813c-0.02734,0 -0.125,-0.08984 -0.22656,-0.19922c-0.3789,-0.41406 -0.43359,-0.46094 -0.84375,-0.68359c-0.30078,-0.16016 -0.36719,-0.17188 -0.95703,-0.1875c-0.34375,-0.01172 -0.76172,-0.01172 -0.91406,0.00781zm0.92187,0.89844c0.26953,0.22656 0.40625,0.36719 0.42188,0.4414c0.01172,0.03516 0.07031,0.11329 0.13672,0.17579c0.0664,0.05859 0.08203,0.08593 0.03906,0.0664c-0.07031,-0.03906 -0.07031,-0.02734 -0.00781,0.04688c0.03906,0.05078 0.05859,0.09375 0.03125,0.09375c-0.03125,0 -0.02344,0.02343 0.0039,0.04687c0.07813,0.05469 0.2461,0.57813 0.2461,0.76563c0,0.08984 0.02734,0.1875 0.0625,0.21875c0.05859,0.0625 0.04687,0.32812 -0.05078,1.125c-0.03125,0.23828 -0.08204,0.46875 -0.10938,0.52734c-0.05078,0.10156 -0.14844,0.61719 -0.13281,0.69141c0.00781,0.02734 -0.01172,0.04687 -0.04297,0.04687c-0.02734,0 -0.07031,0.09766 -0.08984,0.22656c-0.01954,0.1211 -0.07032,0.23438 -0.10938,0.25391c-0.03906,0.00781 -0.05859,0.07031 -0.04687,0.12891c0.00781,0.05859 0,0.10547 -0.03516,0.10547c-0.02734,0 -0.04297,0.03515 -0.03125,0.0664c0.00391,0.03906 -0.02344,0.06641 -0.05469,0.0625c-0.0664,-0.01953 -0.10156,0.08594 -0.07812,0.25391c0.01172,0.03906 -0.01172,0.05469 -0.04297,0.03906c-0.05469,-0.03516 -0.14844,0.16797 -0.1211,0.26953c0.00391,0.02735 -0.0039,0.03906 -0.02343,0.01563c-0.04297,-0.04297 -0.20703,0.14453 -0.26172,0.29687c-0.01563,0.05469 -0.0625,0.10156 -0.09375,0.10156c-0.03125,0 -0.04297,0.01954 -0.02735,0.05469c0.01563,0.02735 0.01172,0.05469 -0.01562,0.05469c-0.03516,0 -0.07422,0.05859 -0.08984,0.13672c-0.01954,0.07812 -0.0586,0.13672 -0.08594,0.13672c-0.03516,0 -0.05469,0.03906 -0.05469,0.08593c0,0.04297 -0.03906,0.08204 -0.08203,0.08204c-0.04688,0 -0.12109,0.05859 -0.17578,0.13671c-0.1836,0.25782 -0.5,0.57813 -0.8086,0.82032c-0.16796,0.1289 -0.28906,0.2539 -0.27343,0.27343c0.01562,0.01563 -0.03907,0.04297 -0.12891,0.0586c-0.08203,0.02344 -0.24609,0.12109 -0.35547,0.22656c-0.10937,0.10547 -0.23047,0.19141 -0.26172,0.19141c-0.03515,0 -0.04687,0.02343 -0.02734,0.05859c0.01562,0.02734 0.00781,0.05469 -0.02344,0.05469c-0.02734,0 -0.05469,-0.04688 -0.05078,-0.10156c0.00781,-0.17579 -0.0625,-0.57813 -0.11328,-0.64063c-0.02734,-0.03125 -0.0625,-0.28906 -0.08203,-0.57031c-0.01563,-0.28125 -0.04297,-0.53516 -0.0625,-0.57031c-0.04688,-0.07032 -0.0586,-2.19532 -0.01563,-2.16797c0.02344,0.01953 0.03516,-0.10938 0.02735,-0.27344c-0.01172,-0.20313 0.00781,-0.31641 0.05078,-0.33203c0.03906,-0.01563 0.05859,-0.09375 0.05469,-0.17578c-0.01172,-0.08985 0.01562,-0.27735 0.05468,-0.41797c0.03125,-0.14453 0.05469,-0.26563 0.03907,-0.26563c-0.01563,0 -0.00782,-0.03515 0.01953,-0.07031c0.03515,-0.03516 0.08984,-0.22266 0.13281,-0.41406c0.03906,-0.1875 0.08984,-0.34375 0.11719,-0.34375c0.01953,0 0.05468,-0.08594 0.07422,-0.19141c0.01562,-0.10547 0.05468,-0.19531 0.08203,-0.19531c0.02734,0 0.05078,-0.03125 0.05078,-0.07422c0,-0.04687 0.03125,-0.11719 0.07031,-0.15625c0.03516,-0.03906 0.12891,-0.19141 0.20313,-0.34375c0.14453,-0.28125 0.83593,-0.96875 0.97265,-0.96875c0.04297,0 0.0586,-0.02734 0.03906,-0.06641c-0.02343,-0.03906 -0.01562,-0.04296 0.02735,-0.02343c0.03125,0.02343 0.12109,0.00781 0.1875,-0.03516c0.27344,-0.17969 0.73047,-0.19922 0.92187,-0.03906zm0,0"/>
   <path id="svg_3" fill-rule="nonzero" fill="#316099" d="m61.26172,8.97266c-0.04297,0.01562 -0.10547,0.0664 -0.12891,0.10547c-0.01953,0.04296 -0.08203,0.07812 -0.11718,0.07812c-0.04688,0 -0.08594,0.03516 -0.08594,0.08203c0,0.04297 -0.01953,0.08203 -0.05469,0.08203c-0.02734,0 -0.05469,0.03125 -0.05469,0.07813c0,0.03906 -0.04687,0.08594 -0.10937,0.10156c-0.06641,0.01953 -0.10938,0.07813 -0.10938,0.14453c0,0.08985 -0.03125,0.11719 -0.13672,0.11719c-0.07812,0 -0.13671,-0.02734 -0.13671,-0.05469c0,-0.03515 -0.02735,-0.05469 -0.06641,-0.05469c-0.03125,0 -0.10547,-0.03515 -0.14844,-0.07812c-0.13672,-0.11719 -0.6289,-0.25391 -0.91015,-0.25391c-0.21485,0 -0.28516,0.02735 -0.47266,0.20313c-0.125,0.11719 -0.25781,0.27734 -0.30078,0.35937c-0.05469,0.10547 -0.1211,0.15235 -0.21485,0.15235c-0.12109,0 -0.13671,-0.01953 -0.13671,-0.19141c0,-0.15625 -0.02344,-0.19141 -0.10547,-0.19141c-0.05469,0 -0.13282,0.03516 -0.17188,0.08204c-0.04687,0.05859 -0.18359,0.08203 -0.52344,0.08203c-0.2539,0 -0.46093,0.01562 -0.46093,0.03906c-0.00782,0.02734 -0.01172,0.81641 -0.01953,1.75781c-0.00391,1.17969 -0.03125,1.73828 -0.07032,1.79297c-0.03906,0.04297 -0.09375,0.25781 -0.13281,0.47266c-0.03906,0.22265 -0.09375,0.40234 -0.12109,0.40234c-0.01953,0 -0.04297,0.04688 -0.04297,0.09375c-0.00391,0.05859 -0.04688,0.19922 -0.10938,0.32031c-0.05859,0.1211 -0.10547,0.25391 -0.10937,0.28907c0,0.03906 -0.05078,0.09765 -0.10938,0.13671c-0.0625,0.03907 -0.10937,0.09766 -0.10937,0.13282c0,0.10937 -0.21094,0.2539 -0.33985,0.23047c-0.15625,-0.01954 -0.18359,-0.14063 -0.26562,-1.28516c-0.04688,-0.59375 -0.04688,-0.99609 -0.00391,-1.43359c0.03125,-0.33594 0.07032,-1.04688 0.09375,-1.58594l0.03125,-0.97656l-0.21875,0c-0.125,0 -0.24218,0.02734 -0.26562,0.05859c-0.01953,0.03906 -0.17969,0.05469 -0.42578,0.03906l-0.39063,-0.01562l0.02344,0.67187c0.00781,0.48047 0,0.67969 -0.04688,0.67969c-0.04296,0 -0.05859,0.28125 -0.05859,0.94922c0,1.01172 -0.09375,2.21094 -0.17187,2.23828c-0.02735,0.01172 -0.04688,0.07031 -0.04688,0.13672c-0.00781,0.0664 -0.05078,0.22265 -0.10937,0.34375c-0.0625,0.12109 -0.10547,0.2539 -0.10938,0.28906c0,0.03906 -0.03906,0.08594 -0.08594,0.10156c-0.04297,0.02344 -0.08203,0.06641 -0.08203,0.10938c0,0.10156 -0.26562,0.10547 -0.30078,0.00781c-0.09375,-0.26562 -0.125,-1.3125 -0.08203,-2.64844c0.09375,-2.85547 0.09766,-2.60156 -0.04297,-2.62109c-0.07031,-0.01172 -0.1875,0.02344 -0.26562,0.06641c-0.09375,0.0664 -0.23438,0.08984 -0.5,0.07812l-0.3711,-0.01562l-0.04297,1.46093c-0.05468,1.75391 -0.02734,3.52344 0.05469,3.57422c0.02734,0.01953 0.07031,0.16016 0.09375,0.3125c0.04297,0.34375 0.27734,0.82422 0.46094,0.94531c0.15234,0.09766 0.77344,0.17579 0.82031,0.09766c0.02344,-0.02734 0.14063,-0.12109 0.25781,-0.21484c0.31641,-0.23047 0.39844,-0.31641 0.4336,-0.45703c0.02343,-0.06641 0.0664,-0.1211 0.09375,-0.1211c0.02734,0 0.05078,-0.03906 0.05078,-0.08203c0,-0.04687 0.03906,-0.08594 0.08594,-0.08594c0.11718,0 0.29687,0.10547 0.29687,0.17188c0,0.03515 0.07813,0.1289 0.17188,0.21484c0.28515,0.26172 0.71484,0.29297 1.07421,0.08203c0.12891,-0.07422 0.23829,-0.16015 0.23829,-0.1875c0,-0.01953 0.05859,-0.07031 0.13671,-0.10156c0.07032,-0.03516 0.14844,-0.12891 0.16797,-0.20703c0.02344,-0.09766 0.07422,-0.13672 0.16016,-0.13672c0.10156,0 0.13281,0.03906 0.16016,0.19141l0.03906,0.19531l0.40625,0c0.21875,0 0.41015,-0.02344 0.42187,-0.04297c0.01172,-0.02344 0.11719,-0.08594 0.23438,-0.12891l0.22265,-0.08203l0.03125,-1.78906c0.01563,-1.05078 0.05469,-1.86719 0.09375,-1.98437c0.03125,-0.10547 0.07813,-0.34766 0.09375,-0.53907c0.02344,-0.1875 0.0586,-0.34375 0.08594,-0.34375c0.02735,0 0.05078,-0.04687 0.05078,-0.10937c0,-0.13281 0.21485,-0.55469 0.32813,-0.64453c0.13281,-0.10938 0.34765,-0.0625 0.42969,0.09375c0.05859,0.10937 0.0664,0.47265 0.04296,1.84765c-0.01562,0.9375 -0.04687,2.07422 -0.07031,2.51953l-0.03515,0.81641l0.41796,0c0.23829,0 0.42188,-0.02344 0.42188,-0.04297c0,-0.02734 0.10156,-0.08203 0.22266,-0.12109c0.14843,-0.05078 0.23046,-0.11719 0.24609,-0.1875c0.03125,-0.14844 0.05859,-0.69531 0.13281,-2.48438c0.02735,-0.78906 0.07422,-1.44531 0.10156,-1.46093c0.02344,-0.01563 0.07813,-0.23047 0.10938,-0.47266c0.03906,-0.24219 0.09375,-0.45313 0.12109,-0.45703c0.03516,-0.01172 0.05469,-0.06641 0.05469,-0.11719c0,-0.05469 0.05078,-0.15625 0.11328,-0.22656c0.0586,-0.07031 0.10938,-0.14844 0.10938,-0.17578c0,-0.02344 0.04687,-0.04297 0.10937,-0.04297c0.0586,0 0.10938,-0.02735 0.10938,-0.05469c0,-0.09375 0.21484,-0.0625 0.32812,0.05469c0.09375,0.09375 0.10938,0.17969 0.10938,0.63281c0,0.28516 -0.01953,0.52344 -0.04688,0.52344c-0.02734,0 -0.0664,0.21484 -0.08984,0.48047c-0.01953,0.26953 -0.06641,0.51953 -0.09375,0.55078c-0.08594,0.10937 -0.08594,2.17969 0,2.20703c0.03515,0.01562 0.0664,0.08594 0.0664,0.16016c0,0.17578 0.11719,0.40234 0.30079,0.57421c0.1289,0.11329 0.21093,0.13672 0.5664,0.15235c0.40235,0.02344 0.4336,0.01172 0.63281,-0.14453c0.2461,-0.19532 0.60938,-0.64844 0.66407,-0.82422c0.01953,-0.06641 0.05859,-0.1211 0.08593,-0.1211c0.02344,0 0.07422,-0.1289 0.10938,-0.27734c0.03906,-0.15625 0.08203,-0.27734 0.10937,-0.27734c0.02344,0 0.0586,-0.17969 0.07422,-0.40625c0.01563,-0.22266 0.05469,-0.45313 0.08203,-0.50782c0.1211,-0.23046 0.16797,-0.39062 0.19532,-0.63281c0.02734,-0.23437 0.01953,-0.26172 -0.08985,-0.29297c-0.1875,-0.05078 -0.1875,-0.04297 -0.22265,0.14453c-0.04688,0.29688 -0.16797,0.75 -0.21875,0.79297c-0.01953,0.02344 -0.03907,0.08594 -0.03907,0.14453c0,0.05469 -0.03125,0.09766 -0.07031,0.09766c-0.04297,0 -0.10547,0.10547 -0.14453,0.22656c-0.07031,0.24219 -0.10937,0.29688 -0.34375,0.53907c-0.08984,0.08984 -0.15234,0.18359 -0.15234,0.22265c0,0.03125 -0.0625,0.0586 -0.13282,0.0586c-0.08984,0 -0.14453,-0.03907 -0.16406,-0.125c-0.0664,-0.23438 -0.10937,-1.85938 -0.05078,-1.85938c0.03516,0 0.07031,-0.21484 0.09375,-0.48047c0.02344,-0.26562 0.06641,-0.49609 0.09375,-0.51953c0.06641,-0.03516 0.09375,-1.625 0.03125,-1.79687c-0.02734,-0.07032 -0.10156,-0.14063 -0.17969,-0.16016c-0.07031,-0.01563 -0.13281,-0.05469 -0.13281,-0.07422c0,-0.02344 -0.09766,-0.08594 -0.21875,-0.13281c-0.21875,-0.08985 -1.01953,-0.1211 -1.20703,-0.05078zm0,0"/>
   <path id="svg_4" fill-rule="nonzero" fill="#316099" d="m31.75,9.57422c-0.21875,0.22656 -0.25391,0.29297 -0.41016,0.92187c-0.0625,0.2461 -0.13281,0.47266 -0.16015,0.50391c-0.02344,0.03125 -0.05469,0.21875 -0.07813,0.41406c-0.01953,0.19922 -0.07031,0.50782 -0.11328,0.69141c-0.13281,0.60547 -0.21094,2.32031 -0.17578,3.97656c0.01563,0.90235 0.00391,1.57422 -0.02344,1.59766c-0.02734,0.01562 -0.04687,0.0664 -0.04687,0.10937c0,0.19922 -0.23828,0.60938 -0.41797,0.72266c-0.10938,0.07422 -0.21484,0.12891 -0.24219,0.12891c-0.08984,0 -0.10937,-0.19532 -0.10547,-0.88282c0.01172,-1.05859 -0.23047,-2.09765 -0.48047,-2.09765c-0.03125,0 -0.08984,-0.07032 -0.14453,-0.16016c-0.10547,-0.17578 -0.40625,-0.39062 -0.55468,-0.39062c-0.05079,0 -0.08594,-0.01954 -0.08594,-0.04688c0,-0.13281 -1.09766,-0.08984 -1.14453,0.04688c-0.01172,0.02734 -0.08203,0.05468 -0.15235,0.05468c-0.12109,0 -0.13281,-0.01953 -0.13281,-0.2539c0,-0.1875 0.05078,-0.33594 0.19141,-0.57813c0.10547,-0.17969 0.19531,-0.35156 0.19531,-0.375c0,-0.02734 0.03516,-0.07812 0.08203,-0.11328c0.04297,-0.03906 0.08203,-0.10547 0.08203,-0.15625c0,-0.09375 0.21485,-0.57422 0.27735,-0.61719c0.01953,-0.01562 0.05468,-0.13281 0.07812,-0.25781c0.01563,-0.12891 0.07031,-0.24609 0.11719,-0.26172c0.04687,-0.01562 0.07422,-0.10937 0.07422,-0.2539c0,-0.1211 0.02343,-0.21875 0.05078,-0.21875c0.02344,0 0.05859,-0.14844 0.08203,-0.33204c0.02344,-0.18359 0.05859,-0.33203 0.08594,-0.33203c0.0625,0 0.07422,-0.5 0.02343,-0.76562c-0.02734,-0.13281 -0.0664,-0.17188 -0.16406,-0.17188c-0.0664,0 -0.16406,-0.03906 -0.21484,-0.08593c-0.0586,-0.0625 -0.22656,-0.10157 -0.53906,-0.11719l-0.44922,-0.02735l-0.20313,0.19922c-0.11328,0.10938 -0.20703,0.21094 -0.20703,0.21875c0,0.11719 -0.13281,0.67578 -0.16406,0.69532c-0.05469,0.03515 -0.25391,1.1875 -0.30469,1.76562c-0.01953,0.22656 -0.05469,1.54297 -0.07422,2.92188l-0.03515,2.51171l-0.16016,0.33985c-0.08594,0.19531 -0.18359,0.34765 -0.22266,0.34765c-0.03906,0 -0.08203,0.03907 -0.10547,0.08204c-0.01562,0.05078 -0.09765,0.08203 -0.20312,0.08203l-0.17578,0l0.03906,-0.57813c0.03906,-0.58984 -0.04297,-1.625 -0.13672,-1.625c-0.02344,0 -0.0625,-0.11328 -0.08203,-0.25c-0.02344,-0.16406 -0.08984,-0.30859 -0.19141,-0.41797c-0.08984,-0.09375 -0.16015,-0.18359 -0.16015,-0.19531c0,-0.00781 -0.08985,-0.10156 -0.19141,-0.20703c-0.12109,-0.12109 -0.32031,-0.23828 -0.55078,-0.31641c-0.35547,-0.12109 -0.36328,-0.12109 -0.82422,-0.01953c-0.25,0.04688 -0.5,0.08203 -0.54687,0.06641c-0.11719,-0.05078 -0.09375,-0.25 0.05468,-0.50781c0.48829,-0.85547 1.07032,-2.23829 1.07032,-2.54297c0,-0.04297 0.02343,-0.07813 0.05078,-0.07813c0.02734,0 0.0625,-0.16015 0.08594,-0.35937c0.01562,-0.19532 0.05468,-0.36719 0.07812,-0.37891c0.01953,-0.01562 0.01953,-0.15625 0.00391,-0.3125c-0.01953,-0.21094 -0.05469,-0.30469 -0.13672,-0.34766c-0.0586,-0.03515 -0.125,-0.08593 -0.14453,-0.10546c-0.04688,-0.06641 -0.41016,-0.14844 -0.73438,-0.17188c-0.3164,-0.02734 -0.68359,0.14453 -0.68359,0.30469c0,0.05469 -0.02344,0.10937 -0.05078,0.125c-0.02735,0.01562 -0.06641,0.14453 -0.08203,0.28125c-0.02344,0.13672 -0.0625,0.25 -0.08204,0.25c-0.07421,0 -0.23046,0.85156 -0.3125,1.65234c-0.04687,0.42969 -0.08984,1.78125 -0.11328,3.22656c-0.01562,1.36329 -0.05468,2.58204 -0.08593,2.70313c-0.02735,0.12109 -0.07032,0.33203 -0.10547,0.46875c-0.09375,0.46094 -0.47266,1.31641 -0.58203,1.32422c-0.03516,0 -0.07032,0.01953 -0.07032,0.05469c0,0.07031 -0.26953,0.32812 -0.34375,0.32812c-0.29297,-0.00391 -0.34375,-0.46094 -0.33593,-2.96484c0.0039,-1.44922 0.02734,-2.07813 0.07031,-2.125c0.09375,-0.09375 0.07812,-0.36719 -0.02344,-0.36719c-0.04297,0 -0.08203,0.01953 -0.08203,0.05078c0,0.02734 -0.21875,0.07031 -0.48828,0.08594l-0.48828,0.03906l-0.03125,0.53516c-0.02344,0.29297 -0.0625,0.72656 -0.08985,0.96875c-0.03125,0.24609 -0.05468,0.80078 -0.05859,1.24218c0,0.44141 -0.02344,0.97266 -0.04297,1.1875c-0.05469,0.44141 -0.18359,1.03516 -0.23047,1.07422c-0.01953,0.01563 -0.05078,0.09375 -0.0664,0.17578c-0.02344,0.08204 -0.08985,0.16016 -0.14454,0.1836c-0.05859,0.01562 -0.11328,0.08594 -0.125,0.15234c-0.01171,0.09375 -0.0625,0.12891 -0.1914,0.13672c-0.17188,0.01953 -0.17578,0.01172 -0.21094,-0.24609c-0.01562,-0.14453 -0.05469,-0.38672 -0.08203,-0.53125c-0.07031,-0.33985 -0.07031,-2.28125 -0.00391,-2.32422c0.03125,-0.01953 0.04297,-0.41016 0.01953,-0.98828c-0.01953,-0.69141 -0.01562,-0.96485 0.02735,-0.99219c0.07422,-0.04297 0.08984,-0.36328 0.02344,-0.36328c-0.02344,0 -0.06641,0.01953 -0.09766,0.04687c-0.09375,0.08985 -0.58984,0.17969 -0.79688,0.14453l-0.20312,-0.03125l-0.04297,0.92579c-0.02734,0.50781 -0.05078,1.53125 -0.05078,2.27734c0,1.41016 0.0625,1.89453 0.29297,2.41406c0.16797,0.3711 0.60156,0.6836 0.875,0.64063c0.21094,-0.03907 0.69531,-0.37891 0.78515,-0.5625c0.04688,-0.08203 0.08985,-0.16016 0.11329,-0.17578c0.01562,-0.01563 0.05859,-0.10547 0.09765,-0.20313c0.10547,-0.26172 0.25,-0.26562 0.4336,-0.03125c0.08203,0.11719 0.16406,0.21094 0.1914,0.22266c0.02344,0.01172 0.03906,0.05468 0.03906,0.09375c0,0.03906 0.0586,0.08984 0.13672,0.10547c0.07813,0.01953 0.13672,0.05859 0.13672,0.08593c0,0.08985 0.46094,0.0625 0.66406,-0.03906c0.23829,-0.11328 0.59766,-0.44922 0.59766,-0.55078c0,-0.03906 0.02344,-0.07031 0.05078,-0.07031c0.02735,0 0.06641,-0.07813 0.08594,-0.16407c0.02344,-0.08984 0.05859,-0.16796 0.08594,-0.16796c0.02734,0 0.0625,-0.08204 0.08203,-0.17969c0.05469,-0.23438 0.35156,-0.86719 0.41015,-0.86719c0.03907,0 0.1211,0.15625 0.37891,0.71875c0.20313,0.45703 0.51172,0.71484 0.9375,0.79297c0.19141,0.03125 0.75781,-0.08203 0.82031,-0.17188c0.01563,-0.02734 0.11328,-0.11718 0.21875,-0.19921c0.23047,-0.19141 0.48438,-0.53516 0.53125,-0.72266c0.01563,-0.08203 0.05469,-0.14063 0.07813,-0.14063c0.02734,0 0.05859,-0.07421 0.08203,-0.16015c0.04297,-0.20703 0.13281,-0.30469 0.55859,-0.62891c0.1875,-0.14453 0.42969,-0.375 0.54297,-0.50781c0.11328,-0.13672 0.23047,-0.25 0.26953,-0.25c0.08203,0 0.16016,0.16016 0.3086,0.66406c0.14453,0.5 0.26953,0.72656 0.5664,1.02344c0.36719,0.36328 0.91407,0.42578 1.33203,0.14844c0.20313,-0.13672 0.56641,-0.4961 0.56641,-0.5625c0,-0.03125 0.02344,-0.0586 0.05078,-0.0586c0.04688,0 0.15625,-0.20312 0.35547,-0.66406c0.10547,-0.24609 0.16797,-0.31641 0.46484,-0.52344c0.28125,-0.1875 0.60938,-0.49609 0.60938,-0.5664c0,-0.07032 0.23047,-0.16016 0.33984,-0.13282c0.0586,0.01172 0.11719,0.08985 0.13282,0.16407c0.01562,0.08593 0.0664,0.28906 0.11718,0.45312c0.04297,0.16797 0.09375,0.3711 0.10938,0.45313c0.01562,0.08984 0.04687,0.15234 0.07422,0.15234c0.03125,0 0.05078,0.03516 0.05078,0.07422c0,0.07031 0.04297,0.13672 0.32031,0.46094c0.05859,0.0625 0.20703,0.15625 0.33984,0.19922c0.19141,0.0664 0.27344,0.0664 0.46094,0.01171c0.30078,-0.09375 0.61328,-0.30859 0.76953,-0.53515c0.11719,-0.17969 0.46875,-0.89453 0.46875,-0.96094c0,-0.01562 0.03516,-0.10937 0.07813,-0.20312c0.03906,-0.09766 0.09765,-0.2461 0.13672,-0.32813c0.07812,-0.19922 0.23047,-0.17969 0.30859,0.04297c0.02734,0.09375 0.07031,0.17578 0.09375,0.19141c0.01563,0.01562 0.05469,0.10156 0.07031,0.18359c0.02344,0.08203 0.0625,0.14844 0.08985,0.14844c0.02734,0 0.04687,0.03125 0.04687,0.07031c0,0.12891 0.40625,0.50391 0.72656,0.66797c0.27735,0.14453 0.33985,0.15625 0.72266,0.13281c0.23047,-0.01562 0.44922,-0.05469 0.48828,-0.09375c0.03516,-0.03125 0.10547,-0.0625 0.16016,-0.0625c0.05469,0 0.09765,-0.02734 0.09765,-0.05469c0,-0.03125 0.03907,-0.05468 0.08204,-0.05468c0.10546,0 0.52343,-0.38672 0.52343,-0.48438c0,-0.03125 0.02344,-0.06641 0.05078,-0.06641c0.02735,0 0.07422,-0.07812 0.11329,-0.16406c0.03906,-0.09375 0.08984,-0.16797 0.11718,-0.16797c0.02735,0 0.04688,-0.02734 0.04688,-0.05468c0,-0.03125 0.08203,-0.24219 0.1875,-0.46094c0.10547,-0.22656 0.20703,-0.50391 0.23047,-0.61719c0.02343,-0.125 0.05859,-0.23437 0.08593,-0.25c0.03516,-0.02344 0.16016,-0.97656 0.13282,-1.02734c-0.02735,-0.03516 -0.17578,-0.03125 -0.19141,0.01172c-0.01172,0.02734 -0.05859,0.14453 -0.11328,0.25c-0.05859,0.10546 -0.11719,0.27343 -0.14063,0.36718c-0.01562,0.10157 -0.05859,0.1836 -0.08593,0.1836c-0.02735,0 -0.05078,0.03125 -0.05078,0.07812c0,0.04297 -0.03125,0.11328 -0.07032,0.15235c-0.03906,0.03906 -0.10547,0.15625 -0.14453,0.25c-0.03515,0.09765 -0.14453,0.26562 -0.24609,0.36718c-0.09375,0.11328 -0.19531,0.22657 -0.23047,0.26563c-0.03125,0.03906 -0.11328,0.10937 -0.17969,0.15625c-0.0625,0.04297 -0.11719,0.12109 -0.11719,0.16797c0,0.0664 -0.08203,0.11718 -0.27734,0.16015c-0.46875,0.11719 -0.63281,0.05469 -0.97656,-0.36328c-0.05078,-0.05859 -0.10547,-0.35937 -0.14844,-0.85937c-0.03516,-0.34766 0.03516,-0.53907 0.19531,-0.53907c0.0625,0 0.10938,-0.02734 0.10938,-0.05859c0,-0.03125 0.03515,-0.05469 0.07812,-0.05469c0.09766,0 0.7461,-0.5 0.7461,-0.58203c0,-0.03906 0.03906,-0.07812 0.08203,-0.10156c0.04297,-0.01563 0.08203,-0.06641 0.08203,-0.11328c0,-0.04688 0.02344,-0.08594 0.05078,-0.08594c0.02734,0 0.07813,-0.07422 0.11328,-0.16406c0.03906,-0.09375 0.08985,-0.16406 0.11719,-0.16406c0.02734,0 0.05078,-0.02735 0.05078,-0.06641c0,-0.03516 0.04297,-0.16797 0.10156,-0.28906c0.25391,-0.55469 0.28516,-0.71094 0.23047,-1.10157c-0.05469,-0.3789 -0.125,-0.52734 -0.25781,-0.52734c-0.04297,0 -0.07422,-0.02344 -0.07422,-0.05078c0,-0.02734 -0.11328,-0.10547 -0.25,-0.17188c-0.21484,-0.10546 -0.31641,-0.11718 -0.80078,-0.09765c-0.44922,0.00781 -0.56641,0.03125 -0.62109,0.10937c-0.03907,0.05469 -0.09375,0.09766 -0.1211,0.09766c-0.15234,0.00781 -0.73437,0.82812 -0.73437,1.03906c0,0.0586 -0.02344,0.125 -0.05078,0.14063c-0.02735,0.02343 -0.0625,0.14062 -0.08594,0.27343c-0.02344,0.125 -0.07031,0.35157 -0.11719,0.5c-0.04297,0.14844 -0.07422,0.40235 -0.07422,0.5625c0,0.16016 -0.02344,0.3086 -0.05469,0.32422c-0.02734,0.01953 -0.05468,0.1211 -0.05468,0.23438c0,0.27344 -0.10938,0.89844 -0.16407,0.89844c-0.02343,0 -0.05859,0.16406 -0.07421,0.36718c-0.01954,0.20703 -0.0586,0.38282 -0.08594,0.39844c-0.02735,0.02344 -0.06641,0.09766 -0.08985,0.18359c-0.01953,0.07422 -0.12109,0.24219 -0.22265,0.35547c-0.10938,0.11719 -0.23047,0.27735 -0.27735,0.35938c-0.04296,0.08984 -0.09765,0.15625 -0.125,0.15625c-0.02734,0 -0.05859,0.04687 -0.07812,0.10937c-0.01953,0.07813 -0.07031,0.10938 -0.18359,0.10938c-0.3086,0 -0.39844,-0.05469 -0.42969,-0.26953c-0.02344,-0.10938 -0.07031,-0.32422 -0.1211,-0.47266c-0.13671,-0.44141 -0.20312,-1 -0.20312,-1.77344c-0.00391,-0.60156 0.01172,-0.74218 0.08203,-0.82422c0.05078,-0.0625 0.14844,-0.26171 0.21484,-0.45312c0.07032,-0.1875 0.14454,-0.34375 0.17188,-0.34375c0.01953,0 0.05859,-0.09375 0.08203,-0.20703c0.01953,-0.11328 0.08203,-0.28125 0.12891,-0.3711c0.05078,-0.09375 0.1289,-0.30468 0.16797,-0.46875c0.03515,-0.16406 0.08984,-0.32031 0.125,-0.33593c0.02734,-0.02344 0.0664,-0.14844 0.07812,-0.29297c0.01563,-0.13672 0.04688,-0.25391 0.07031,-0.25391c0.06641,0 0.16407,-0.51172 0.16407,-0.85547c0,-0.16797 0.02734,-0.30078 0.05859,-0.3125c0.04687,-0.01562 0.08203,-0.33203 0.11719,-0.87109c0.04297,-0.74609 0.03906,-0.91016 -0.04297,-1.28516c-0.05078,-0.23047 -0.11719,-0.42578 -0.14453,-0.42578c-0.01953,0 -0.04297,-0.03906 -0.04297,-0.08203c0,-0.04297 -0.02735,-0.08203 -0.0625,-0.08203c-0.03125,0 -0.11719,-0.05078 -0.19531,-0.10938c-0.07813,-0.0625 -0.19922,-0.11328 -0.26954,-0.11328c-0.0664,0 -0.13281,-0.01953 -0.14453,-0.04297c-0.0039,-0.02734 -0.14843,-0.0664 -0.30468,-0.08203c-0.27735,-0.03515 -0.29688,-0.02734 -0.48438,0.16016zm1.06641,1.70312c0.01562,0.56641 0,0.9336 -0.06641,1.32813c-0.11719,0.67969 -0.23828,1.30078 -0.3125,1.59375c-0.03516,0.12109 -0.08203,0.35937 -0.12109,0.52344c-0.03516,0.16797 -0.09375,0.32812 -0.13282,0.34765c-0.03906,0.02344 -0.07031,0.10547 -0.07031,0.17969c0,0.07031 -0.02344,0.14063 -0.05078,0.16406c-0.08594,0.05078 -0.13281,-0.68359 -0.09375,-1.51562c0.02344,-0.44141 0.05469,-1.09375 0.06641,-1.45703c0.02343,-0.46875 0.05078,-0.67969 0.10937,-0.73438c0.05078,-0.05078 0.07813,-0.19922 0.07813,-0.41797c0,-0.38281 0.12109,-0.83203 0.2539,-0.98047c0.08594,-0.10156 0.09766,-0.09375 0.20313,0.04297c0.09765,0.125 0.11328,0.24219 0.13672,0.92578zm-4.82032,-0.13671c0.04297,0.08593 0.03907,0.26562 -0.03515,0.70312c-0.04688,0.32813 -0.10938,0.61328 -0.12891,0.64844c-0.02344,0.02734 -0.0625,0.13672 -0.08203,0.23047c-0.01953,0.09765 -0.05469,0.18359 -0.08203,0.18359c-0.02734,0 -0.0625,0.07031 -0.08594,0.16406c-0.03515,0.17969 -0.10156,0.21485 -0.15625,0.07813c-0.05078,-0.12891 -0.03906,-0.35547 0.01172,-0.35547c0.02734,0 0.07422,-0.29297 0.10938,-0.64844c0.07421,-0.78906 0.07031,-0.78515 0.1289,-0.78515c0.02344,0 0.04688,-0.03125 0.04688,-0.07813c0,-0.07031 0.13672,-0.25 0.1914,-0.25c0.01563,0 0.04688,0.04688 0.08203,0.10938zm-4.53906,1.19531c0.01563,0.32031 0.01172,0.54687 -0.02344,0.55859c-0.02734,0.01172 -0.05078,0.06641 -0.05078,0.125c0,0.05469 -0.01953,0.10547 -0.04687,0.10547c-0.02735,0 -0.0625,0.09766 -0.08203,0.21875c-0.01563,0.125 -0.05469,0.22266 -0.08203,0.22266c-0.02735,0 -0.06641,0.08984 -0.08204,0.1914c-0.03906,0.20703 -0.11328,0.25 -0.16796,0.10547c-0.04688,-0.13281 -0.03516,-0.61719 0.01953,-0.64062c0.02734,-0.00782 0.07031,-0.26953 0.09765,-0.57813c0.03907,-0.39062 0.08203,-0.58203 0.14844,-0.64844c0.05078,-0.05078 0.08594,-0.11718 0.08594,-0.14453c0,-0.02734 0.03515,-0.05078 0.07812,-0.05078c0.05469,0 0.08203,0.13672 0.10547,0.53516zm12.78906,2.13281c0.09766,0.07813 0.13282,0.44141 0.04297,0.5c-0.02734,0.01563 -0.0664,0.12109 -0.08203,0.22266c-0.01953,0.10547 -0.05859,0.19531 -0.08203,0.19531c-0.02734,0 -0.13281,0.13281 -0.23047,0.28516c-0.10547,0.16015 -0.23047,0.33593 -0.28125,0.38671c-0.05469,0.05469 -0.09765,0.13282 -0.09765,0.17579c0,0.07812 -0.16016,0.17187 -0.20313,0.12109c-0.04297,-0.03906 0.09375,-1.21094 0.14453,-1.24609c0.01953,-0.01563 0.0586,-0.08594 0.07422,-0.16407c0.02344,-0.07812 0.10938,-0.23047 0.20313,-0.34765c0.18359,-0.21485 0.33984,-0.25391 0.51171,-0.12891zm-7.85937,1.45703c0.05469,0.05078 0.10156,0.1211 0.10156,0.16016c0,0.03906 0.02344,0.07031 0.04688,0.07031c0.04687,0 0.16406,0.30078 0.19531,0.53125c0.01562,0.08984 0.05078,0.32031 0.08203,0.51953c0.0625,0.39063 0.07813,1.49219 0.02734,1.69141c-0.01953,0.07031 -0.05859,0.1289 -0.08593,0.1289c-0.03516,0 -0.09766,0.04688 -0.15625,0.10938c-0.08594,0.10547 -0.32813,0.09766 -0.32813,-0.00781c0,-0.02735 -0.03125,-0.04688 -0.07031,-0.04688c-0.03906,0 -0.1875,-0.11328 -0.32813,-0.24219c-0.27734,-0.27343 -0.34375,-0.4375 -0.40234,-1.04296c-0.02344,-0.20313 -0.05859,-0.38672 -0.08203,-0.40235c-0.02734,-0.01953 -0.05078,-0.22265 -0.05078,-0.45312c0,-0.5586 0.14453,-0.85938 0.48828,-1.04297c0.25391,-0.13281 0.37891,-0.125 0.5625,0.02734zm-4.72656,0.67188c0,0.02734 0.05468,0.0664 0.125,0.08593c0.11718,0.03125 0.17968,0.12891 0.32812,0.52344c0.09375,0.2461 0.16016,0.78906 0.1875,1.51563c0.02735,0.79297 -0.0039,1.07422 -0.12109,1.07422c-0.03906,0 -0.08594,0.07421 -0.10938,0.16796c-0.03125,0.15235 -0.13672,0.23438 -0.13672,0.10938c0,-0.03516 -0.03906,-0.05469 -0.08203,-0.05469c-0.14453,0 -0.63281,-0.38281 -0.63281,-0.49219c0,-0.02734 -0.02734,-0.05859 -0.05469,-0.07031c-0.10156,-0.03515 -0.28515,-0.99219 -0.3125,-1.63281c-0.01953,-0.60547 -0.01953,-0.62891 0.13282,-0.87109c0.125,-0.19922 0.1914,-0.25391 0.36328,-0.27735c0.10937,-0.01953 0.20312,-0.05469 0.20312,-0.08203c0,-0.02734 0.02735,-0.05078 0.05469,-0.05078c0.03125,0 0.05469,0.02344 0.05469,0.05469zm0,0"/>
   <path id="svg_5" fill-rule="nonzero" fill="#316099" d="m8.75391,12.16406c-0.14844,0.03907 -0.35547,0.07813 -0.44922,0.07813c-0.09766,0 -0.17969,0.02344 -0.17969,0.05078c0,0.02734 -0.13281,0.06641 -0.28516,0.08203c-0.16015,0.02344 -0.30468,0.0625 -0.32031,0.08984c-0.01562,0.01954 -0.1875,0.07422 -0.38281,0.11329c-0.19922,0.03906 -0.37891,0.10546 -0.40234,0.14453c-0.01954,0.03906 -0.10157,0.07031 -0.17579,0.07031c-0.07421,0 -0.13671,0.02344 -0.13671,0.05469c0,0.02734 -0.04688,0.05859 -0.10938,0.05859c-0.05859,0 -0.125,0.03516 -0.14062,0.08203c-0.02344,0.04297 -0.10157,0.08203 -0.1875,0.08203c-0.17188,0 -0.4961,0.14844 -0.4961,0.22657c0,0.02734 -0.03125,0.04687 -0.07031,0.04687c-0.03906,0 -0.15234,0.08984 -0.25781,0.19922c-0.10547,0.10547 -0.23438,0.23828 -0.29688,0.28906c-0.28906,0.25781 -0.58203,0.60156 -0.64062,0.73828c-0.03516,0.08203 -0.08203,0.15235 -0.10938,0.15235c-0.02734,0 -0.05078,0.04687 -0.05078,0.10156c0,0.05859 -0.05078,0.16016 -0.10937,0.23047c-0.0625,0.07031 -0.10938,0.1875 -0.10938,0.25781c0,0.06641 -0.02344,0.12891 -0.04687,0.12891c-0.02735,0 -0.07422,0.11718 -0.10938,0.25781c-0.03516,0.14844 -0.10156,0.40234 -0.14844,0.57031c-0.14843,0.51172 -0.18359,0.80469 -0.1914,1.30469c-0.01172,0.55859 0.10156,1.57422 0.16406,1.61719c0.02344,0.01562 0.0625,0.12109 0.08203,0.23828c0.02344,0.10937 0.0625,0.20312 0.08594,0.20312c0.02734,0 0.05859,0.07032 0.08203,0.16407c0.01953,0.08984 0.05469,0.16796 0.07422,0.16796c0.02344,0 0.07422,0.08594 0.10937,0.19532c0.03907,0.11328 0.10938,0.24609 0.16797,0.30078c0.04688,0.05469 0.17578,0.20312 0.27735,0.32422c0.10546,0.125 0.21875,0.22656 0.25781,0.22656c0.03906,0 0.07422,0.01953 0.07422,0.05078c0,0.07031 0.55078,0.42969 0.72656,0.47266c0.08594,0.02343 0.14844,0.05859 0.14844,0.08203c0,0.09375 1.01562,0.26953 1.40234,0.24219c0.51563,-0.03907 1.23438,-0.19922 1.23438,-0.27344c0,-0.04688 0.05078,-0.07813 0.10937,-0.07813c0.05859,0 0.10938,-0.02343 0.10938,-0.05468c0,-0.11719 -0.16407,-0.6836 -0.20704,-0.71094c-0.02734,-0.01953 -0.0625,-0.07813 -0.08203,-0.13281c-0.03515,-0.08204 -0.07422,-0.09375 -0.24218,-0.0625c-0.11719,0.02343 -0.22657,0.0664 -0.2461,0.10156c-0.02344,0.03125 -0.28125,0.05859 -0.6875,0.05859c-0.60547,0 -0.67187,-0.01172 -0.97656,-0.16015c-0.18359,-0.08594 -0.35156,-0.19141 -0.375,-0.23438c-0.01953,-0.03906 -0.07422,-0.07422 -0.11328,-0.07422c-0.09375,0 -0.41797,-0.36328 -0.41797,-0.46094c0,-0.04687 -0.03906,-0.08984 -0.08203,-0.11328c-0.04297,-0.01562 -0.08203,-0.0664 -0.08203,-0.10937c0,-0.04297 -0.02735,-0.08594 -0.05469,-0.09766c-0.03516,-0.01172 -0.08203,-0.17578 -0.10938,-0.36328c-0.03515,-0.19531 -0.08203,-0.39453 -0.11328,-0.44141c-0.01953,-0.05078 -0.08593,-0.28906 -0.13672,-0.51953c-0.10937,-0.50781 -0.09765,-1.87109 0.01954,-1.98437c0.03515,-0.03906 0.0625,-0.11719 0.0625,-0.17188c0,-0.05468 0.03515,-0.18359 0.07812,-0.27734c0.04297,-0.09766 0.09375,-0.21484 0.10938,-0.25781c0.01562,-0.04297 0.08203,-0.16016 0.14453,-0.25c0.05859,-0.09375 0.125,-0.20313 0.14843,-0.2461c0.06641,-0.13672 0.13672,-0.22265 0.51954,-0.60156c0.48437,-0.48437 0.85546,-0.77734 0.97656,-0.77734c0.03515,0 0.05469,-0.02344 0.05469,-0.05078c0,-0.02735 0.09375,-0.08204 0.21093,-0.11329c0.10938,-0.03906 0.24219,-0.10156 0.28516,-0.13281c0.19531,-0.15625 0.85937,-0.39453 1.25,-0.45312c0.14453,-0.02344 0.27734,-0.0625 0.29297,-0.09375c0.05469,-0.07813 1.85547,-0.08203 1.90234,-0.00391c0.02344,0.03125 0.14844,0.08203 0.28516,0.09766c0.14062,0.02343 0.32422,0.07031 0.41406,0.11718c0.09375,0.04297 0.20313,0.08594 0.24609,0.10938c0.21875,0.08594 0.63282,0.37891 0.85157,0.60547c0.37109,0.38281 0.72265,1.00781 0.77734,1.39062c0.01953,0.13282 0.05469,0.23828 0.08984,0.23828c0.03125,0 0.04297,0.25391 0.02735,0.69922c-0.02344,0.57813 -0.05078,0.75 -0.14844,0.95313c-0.30078,0.61328 -0.52734,0.9375 -0.66016,0.9375c-0.03125,0 -0.05859,0.02734 -0.05859,0.0625c0,0.08203 -0.23047,0.32422 -0.3125,0.32422c-0.03906,0 -0.07031,0.03906 -0.07031,0.08203c0,0.08203 -0.12891,0.11719 -0.75,0.16406l-0.38672,0.03516l-0.03516,-1.55078c-0.01562,-0.84766 -0.0039,-1.625 0.01563,-1.72657c0.02344,-0.09765 0.0625,-0.40234 0.07812,-0.67187l0.03516,-0.4961l-0.48438,0c-0.39062,0 -0.5039,-0.01562 -0.58203,-0.09765c-0.12109,-0.11719 -0.36328,-0.12891 -0.36328,-0.01172c0,0.04297 0.02735,0.13281 0.06641,0.1875c0.05078,0.07812 0.05078,0.32422 0,1.03125c-0.07813,1.08594 -0.08203,4.15625 -0.01172,4.95703c0.07812,0.89453 -0.08594,3.92578 -0.24609,4.4375c-0.03907,0.14063 -0.09375,0.35547 -0.10938,0.48047c-0.02344,0.13281 -0.0625,0.25 -0.08984,0.26953c-0.02735,0.01953 -0.04688,0.08594 -0.04688,0.14453c0,0.11719 -0.20312,0.4961 -0.28515,0.53125c-0.02344,0.01172 -0.04688,0.04688 -0.04688,0.08594c0,0.03516 -0.04687,0.10547 -0.10937,0.16016c-0.0586,0.05078 -0.10938,0.14062 -0.10938,0.19921c0,0.09766 -0.04687,0.10547 -0.87891,0.09375c-0.61718,-0.0039 -0.89453,0.01172 -0.92187,0.0625c-0.01953,0.03125 -0.21484,0.08594 -0.43359,0.11329c-0.21875,0.03515 -0.42579,0.08203 -0.46485,0.11718c-0.03906,0.03125 -0.13281,0.11719 -0.21094,0.17578c-0.125,0.10547 -0.13671,0.15625 -0.13671,0.52344c0,0.36328 0.01953,0.41797 0.13671,0.53516c0.19532,0.17578 0.5625,0.3164 0.83985,0.3164c0.21094,0 0.57422,-0.10546 1.1914,-0.33203c0.24219,-0.09375 0.6875,-0.36328 0.86719,-0.53515c0.1211,-0.11719 0.16797,-0.1211 0.44531,-0.08203c0.59375,0.07812 2.41797,0.03906 2.91016,-0.0625c0.25391,-0.04688 0.53906,-0.09375 0.64063,-0.09375c0.10546,0 0.1875,-0.01954 0.1875,-0.04688c0,-0.03125 0.10546,-0.06641 0.23046,-0.08984c0.12891,-0.02344 0.26954,-0.0625 0.32032,-0.08985c0.04297,-0.01953 0.26953,-0.13281 0.49218,-0.24218c0.22657,-0.10938 0.4961,-0.25391 0.59766,-0.32032c0.20313,-0.12109 0.96094,-0.875 1.10547,-1.08593c0.04297,-0.06641 0.125,-0.17188 0.17969,-0.23438c0.05468,-0.0625 0.10937,-0.17187 0.1289,-0.24609c0.01953,-0.07032 0.05469,-0.125 0.08203,-0.125c0.01954,0 0.07422,-0.09766 0.10938,-0.22266c0.03906,-0.12109 0.08203,-0.21875 0.10156,-0.21875c0.02344,0 0.0625,-0.08984 0.07813,-0.19141c0.02343,-0.10546 0.0625,-0.19531 0.08984,-0.19531c0.01953,0 0.05859,-0.125 0.08203,-0.27344c0.01953,-0.15625 0.0586,-0.27734 0.08203,-0.27734c0.08203,0 0.1211,-0.68359 0.06641,-1.15625c-0.0625,-0.54297 -0.22656,-1.21484 -0.3125,-1.30859c-0.03906,-0.03516 -0.14453,-0.1875 -0.24219,-0.34375c-0.10156,-0.15235 -0.20312,-0.28125 -0.23047,-0.28125c-0.02734,0 -0.05078,-0.02735 -0.05078,-0.06641c0,-0.16797 -1.07031,-1.14453 -1.26172,-1.14453c-0.02734,0 -0.05468,-0.02734 -0.05468,-0.05469c0,-0.03515 -0.02344,-0.05469 -0.05079,-0.05469c-0.02734,0 -0.16796,-0.05859 -0.3164,-0.12109c-0.14453,-0.06641 -0.36328,-0.14453 -0.48438,-0.17969c-0.20312,-0.05468 -0.21875,-0.07422 -0.23437,-0.26953c-0.01953,-0.17187 0.00781,-0.24219 0.17187,-0.41406c0.10547,-0.10938 0.24219,-0.26172 0.30469,-0.33984c0.05859,-0.07813 0.13672,-0.16797 0.16406,-0.19922c0.02735,-0.03516 0.06641,-0.10938 0.08203,-0.17578c0.02344,-0.06641 0.0586,-0.1211 0.08594,-0.1211c0.03125,0 0.07813,-0.08984 0.11328,-0.19922c0.03516,-0.10937 0.09766,-0.26562 0.14063,-0.34375c0.04297,-0.08203 0.07812,-0.20312 0.07812,-0.26953c0,-0.0664 0.02735,-0.125 0.06641,-0.13672c0.09766,-0.03515 0.09375,-1.21484 -0.00781,-1.53515c-0.13672,-0.45703 -0.42188,-0.96875 -0.5625,-1.03516c-0.03125,-0.01172 -0.04688,-0.05078 -0.04688,-0.08203c0,-0.07813 -0.60937,-0.64063 -0.69531,-0.64453c-0.03906,0 -0.07031,-0.02735 -0.07031,-0.05469c0,-0.03516 -0.04688,-0.07812 -0.09375,-0.09375c-0.05469,-0.02344 -0.1211,-0.06641 -0.15625,-0.10547c-0.06641,-0.07812 -0.94141,-0.39844 -1.26172,-0.46484c-0.1211,-0.02344 -0.3086,-0.07031 -0.41016,-0.10547c-0.28125,-0.08594 -2.04687,-0.07031 -2.39062,0.02734zm4.00781,6.97266c0.12109,0.05859 0.25391,0.10547 0.29297,0.10937c0.03906,0 0.08203,0.03907 0.09765,0.08204c0.02344,0.04687 0.05469,0.08203 0.08204,0.08203c0.08984,0 0.62109,0.43359 0.76171,0.62109c0.07813,0.09375 0.19532,0.23438 0.26563,0.3125c0.06641,0.07031 0.13672,0.19141 0.15234,0.26563c0.02344,0.07031 0.05469,0.125 0.07813,0.125c0.02734,0 0.05859,0.07421 0.08203,0.16796c0.02344,0.08594 0.05469,0.16407 0.07812,0.16407c0.04297,0 0.2461,0.66015 0.35938,1.18359c0.09375,0.40625 0.06641,1.35156 -0.03125,1.35156c-0.02734,0 -0.05078,0.10157 -0.05078,0.22266c0,0.12109 -0.01953,0.21875 -0.04688,0.21875c-0.02734,0 -0.0625,0.10156 -0.08203,0.22266c-0.01953,0.12109 -0.05469,0.21875 -0.08203,0.21875c-0.02734,0 -0.06641,0.04687 -0.08594,0.09375c-0.13672,0.38281 -0.92187,1.33984 -1.08984,1.33984c-0.02734,0 -0.13672,0.08984 -0.24219,0.19531c-0.10547,0.10547 -0.20703,0.19141 -0.23047,0.19141c-0.02734,0 -0.0625,0.03515 -0.07812,0.07812c-0.01563,0.03907 -0.09766,0.09375 -0.1875,0.11719c-0.08203,0.01563 -0.16406,0.05469 -0.17969,0.07422c-0.05078,0.06641 -1.16797,0.28125 -1.36719,0.26562c-0.10156,-0.01171 -0.30078,0 -0.4375,0.02344c-0.13672,0.01953 -0.48437,0.02735 -0.76562,0.01172c-0.50781,-0.03516 -0.50781,-0.03516 -0.49219,-0.17969c0.00391,-0.07422 0.04297,-0.1875 0.08594,-0.23437c0.04687,-0.05078 0.0625,-0.12891 0.03515,-0.16797c-0.02343,-0.03906 -0.02343,-0.05469 0.00391,-0.03125c0.05469,0.05078 0.26563,-0.32422 0.22266,-0.39844c-0.01953,-0.02734 0,-0.0664 0.03515,-0.09375c0.09375,-0.05469 0.3125,-0.60156 0.35938,-0.86328c0.01562,-0.11328 0.04687,-0.21875 0.07422,-0.23437c0.02734,-0.01172 0.0625,-0.14844 0.08203,-0.29688c0.02344,-0.15625 0.05469,-0.27734 0.08594,-0.27734c0.01953,0 0.05859,-0.17578 0.08203,-0.38282c0.01562,-0.21484 0.05468,-0.38671 0.07422,-0.38671c0.02734,0 0.0664,-0.25 0.08203,-0.55079c0.02343,-0.30468 0.0664,-0.55468 0.09375,-0.55468c0.02734,0 0.05078,-0.12891 0.04297,-0.28907c-0.00391,-0.47656 0.05078,-2.15234 0.08593,-2.33593c0.02735,-0.14063 0.07032,-0.1875 0.26172,-0.25782c0.125,-0.04296 0.3125,-0.09765 0.41016,-0.12109c0.10156,-0.02344 0.25,-0.07031 0.33203,-0.11719c0.20312,-0.10156 0.48828,-0.09375 0.75,0.03516zm0,0"/>
  </g>
 </g>
</svg>